<svg xmlns="http://www.w3.org/2000/svg" xmlns:xlink="http://www.w3.org/1999/xlink"><defs>
<clipPath id="clip0_16501:1216">
<rect width="16.858" height="16.125" fill="white" transform="translate(0.329559 0.0625)"/>
</clipPath>

<clipPath id="clip0_13536_5348">
<rect width="22" height="24" fill="white" transform="translate(0.5 22) rotate(-90)"/>
</clipPath>

<clipPath id="clip0_16501:1213">
<rect width="16.858" height="16.125" fill="white" transform="translate(0.329559 0.0625)"/>
</clipPath>

<filter id="filter0_d_13528_1330" x="69.3743" y="13.5809" width="132.626" height="23.6473" filterUnits="userSpaceOnUse" color-interpolation-filters="sRGB">
<feFlood flood-opacity="0" result="BackgroundImageFix"/>
<feColorMatrix in="SourceAlpha" type="matrix" values="0 0 0 0 0 0 0 0 0 0 0 0 0 0 0 0 0 0 127 0" result="hardAlpha"/>
<feOffset dy="1"/>
<feGaussianBlur stdDeviation="1"/>
<feColorMatrix type="matrix" values="0 0 0 0 0 0 0 0 0 0 0 0 0 0 0 0 0 0 0.3 0"/>
<feBlend mode="normal" in2="BackgroundImageFix" result="effect1_dropShadow_13528_1330"/>
<feBlend mode="normal" in="SourceGraphic" in2="effect1_dropShadow_13528_1330" result="shape"/>
</filter>

<filter id="filter0_d_17213_2033" x="57.2407" y="11.248" width="110.759" height="20.5037" filterUnits="userSpaceOnUse" color-interpolation-filters="sRGB">
<feFlood flood-opacity="0" result="BackgroundImageFix"/>
<feColorMatrix in="SourceAlpha" type="matrix" values="0 0 0 0 0 0 0 0 0 0 0 0 0 0 0 0 0 0 127 0" result="hardAlpha"/>
<feOffset dy="1"/>
<feGaussianBlur stdDeviation="1"/>
<feColorMatrix type="matrix" values="0 0 0 0 0 0 0 0 0 0 0 0 0 0 0 0 0 0 0.3 0"/>
<feBlend mode="normal" in2="BackgroundImageFix" result="effect1_dropShadow_17213_2033"/>
<feBlend mode="normal" in="SourceGraphic" in2="effect1_dropShadow_17213_2033" result="shape"/>
</filter>
</defs><symbol id="arrow-back" viewBox="0 0 15 21">
  <path d="M11.8116 1.40061C11.713 1.28894 11.5958 1.20035 11.4668 1.1399C11.3378 1.07945 11.1994 1.04834 11.0598 1.04834C10.9201 1.04834 10.7818 1.07945 10.6528 1.1399C10.5238 1.20035 10.4066 1.28894 10.3079 1.40061L3.24844 9.37194C3.16968 9.46069 3.1072 9.5661 3.06457 9.68214C3.02194 9.79818 3 9.92258 3 10.0482C3 10.1738 3.02194 10.2982 3.06457 10.4143C3.1072 10.5303 3.16968 10.6357 3.24844 10.7245L10.3079 18.6958C10.7242 19.1658 11.3953 19.1658 11.8116 18.6958C12.2279 18.2258 11.883 17.7322 11.4668 17.2622L7.74854 13.0836L5.12914 10.0172L11.8207 2.30298C11.8207 2.30298 12.2279 1.86105 11.8116 1.40061Z"/>
</symbol><symbol id="arrow-down" viewBox="0 0 8 11">
<path d="M3.64645 10.3536C3.84171 10.5488 4.15829 10.5488 4.35355 10.3536L7.53553 7.17157C7.7308 6.97631 7.7308 6.65973 7.53553 6.46447C7.34027 6.2692 7.02369 6.2692 6.82843 6.46447L4 9.29289L1.17157 6.46447C0.976311 6.2692 0.659728 6.2692 0.464466 6.46447C0.269204 6.65973 0.269204 6.97631 0.464466 7.17157L3.64645 10.3536ZM3.5 0L3.5 10H4.5L4.5 0L3.5 0Z" fill="#CBCED9"/>
</symbol><symbol id="arrow-next" viewBox="0 0 14 21">
  <path d="M3.06949 19.3693C3.16815 19.481 3.28536 19.5695 3.41439 19.63C3.54343 19.6904 3.68176 19.7216 3.82146 19.7216C3.96117 19.7216 4.0995 19.6904 4.22853 19.63C4.35757 19.5695 4.47477 19.481 4.57344 19.3693L11.6343 11.398C11.7131 11.3092 11.7756 11.2038 11.8182 11.0878C11.8609 10.9717 11.8828 10.8473 11.8828 10.7217C11.8828 10.5961 11.8609 10.4717 11.8182 10.3556C11.7756 10.2396 11.7131 10.1342 11.6343 10.0454L4.57344 2.07408C4.15709 1.60405 3.48584 1.60405 3.06949 2.07408C2.65315 2.54411 3.32375 3.3591 3.74009 3.82913L9.82453 10.7217L3.41439 17.972C3.00654 18.4324 2.65315 18.9089 3.06949 19.3693Z"/>
</symbol><symbol id="button-arrow" viewBox="0 0 11 14">
<path d="M10.1924 7L0.0962334 13.0622V0.937822L10.1924 7Z"/>
</symbol><symbol id="button-back" viewBox="0 0 12 14">
<path d="M0 7L12 0.0717964L12 13.9282L0 7Z" fill="#1D2E5B"/>
</symbol><symbol id="circle-100" viewBox="0 0 100 100">
<path fill-rule="evenodd" clip-rule="evenodd" d="M5.76698 26.6667C2.08488 33.6324 0 41.5727 0 50C0 77.6142 22.3858 100 50 100C77.6142 100 100 77.6142 100 50C100 22.3858 77.6142 0 50 0V3C75.9574 3 97 24.0426 97 50C97 75.9574 75.9574 97 50 97C24.0426 97 3 75.9574 3 50C3 41.508 5.25217 33.5419 9.19181 26.6667H5.76698Z" fill="#FF8D30"/>
</symbol><symbol id="circle-25" viewBox="0 0 62 62">
<path d="M59.8014 35.4465C60.254 31.5329 59.9313 27.5685 58.8518 23.7796C57.7723 19.9908 55.9571 16.4516 53.5098 13.3643C51.0625 10.2769 48.0311 7.70183 44.5886 5.78602C41.1461 3.87022 37.36 2.65122 33.4465 2.19863" stroke="#FF8D30" stroke-width="3" stroke-linecap="round"/>
</symbol><symbol id="circle-50" viewBox="0 0 62 64">
<path d="M30 62C37.9565 62 45.5871 58.8393 51.2132 53.2132C56.8393 47.5871 60 39.9565 60 32C60 24.0435 56.8393 16.4129 51.2132 10.7868C45.5871 5.16071 37.9565 2 30 2" stroke="#FF8D30" stroke-width="3" stroke-linecap="round"/>
</symbol><symbol id="circle-80" viewBox="0 0 60 60">
<path d="M4.74236 17.9148C2.16557 23.3002 1.37757 29.3683 2.4934 35.2332C3.60922 41.0982 6.57045 46.4529 10.9448 50.5159C15.3192 54.5788 20.8777 57.1372 26.8089 57.8176C32.7402 58.498 38.7336 57.2647 43.9144 54.2979C49.0952 51.3311 53.1921 46.786 55.607 41.3261C58.022 35.8662 58.6285 29.7773 57.3382 23.9483C56.0478 18.1193 52.9282 12.8553 48.4345 8.92466C43.9408 4.99408 38.3084 2.6027 32.3595 2.0996" stroke="#FF8D30" stroke-width="4" stroke-linecap="round"/>
</symbol><symbol id="circle-95" viewBox="0 0 95 95">
<path fill-rule="evenodd" clip-rule="evenodd" d="M5.47863 25.3333C1.98063 31.9508 0 39.4941 0 47.5C0 73.7335 21.2665 95 47.5 95C73.7335 95 95 73.7335 95 47.5C95 21.2665 73.7336 2.06161e-05 47.5 0V3C72.0767 3.00002 92 22.9233 92 47.5C92 72.0767 72.0767 92 47.5 92C22.9233 92 3 72.0767 3 47.5C3 39.429 5.14868 31.8598 8.90522 25.3333H5.47863Z" fill="#FF8D30"/>
</symbol><symbol id="circle-99" viewBox="0 0 60 60">
<path d="M22.5503 3.00922C15.7757 4.87906 9.95203 9.22814 6.23551 15.1929C2.51899 21.1577 1.18146 28.302 2.48848 35.2073C3.7955 42.1126 7.65149 48.2739 13.2908 52.4678C18.9302 56.6618 25.9405 58.5817 32.9298 57.8463C39.9191 57.1109 46.3763 53.7741 51.0193 48.4983C55.6623 43.2226 58.1516 36.3937 57.9929 29.3676C57.8341 22.3415 55.039 15.632 50.1625 10.5713C45.2859 5.51057 38.6846 2.46876 31.6692 2.0498" stroke="#FF8D30" stroke-width="4" stroke-linecap="round"/>
</symbol><symbol id="dots-tablet" viewBox="0 0 30 6">
<circle cx="3" cy="3" r="3" fill="#192144"/>
<circle cx="15" cy="3" r="3" fill="#192144"/>
<circle cx="27" cy="3" r="3" fill="#192144"/>
</symbol><symbol id="dots" viewBox="0 0 17 3">
<circle cx="1.5" cy="1.5" r="1.5" fill="#192144"/>
<circle cx="8.5" cy="1.5" r="1.5" fill="#192144"/>
<circle cx="15.5" cy="1.5" r="1.5" fill="#192144"/>
</symbol><symbol id="filter-close" viewBox="0 0 16 16">
<path d="M14 2L2 14" stroke="#192144" stroke-width="2" stroke-linecap="round" stroke-linejoin="round"/>
<path d="M2 2L14 14" stroke="#192144" stroke-width="2" stroke-linecap="round" stroke-linejoin="round"/>
</symbol><symbol id="html-academy" viewBox="0 0 27 34">
<path d="M13.6426 0.101368L13.5 0.0859375L0 1.46443V25.5657L13.5 33.3892L27 25.5657V1.46443L13.6426 0.101368ZM25.2344 24.5885L13.5 31.3883L1.76561 24.5885V14.7093L13.4507 21.4834L13.4701 22.711L5.45351 18.0646L5.44295 19.2648L13.4894 23.9747L13.5088 25.2348L5.46408 20.5747L5.45351 21.7749L13.5 26.4847L21.6239 21.7509V20.5507V16.6484L25.2432 14.543L25.2344 24.5885ZM25.2344 13.2622L22.0147 15.1036L20.5325 15.9609L13.4666 11.8597L13.456 13.0599L19.4957 16.5593L19.4429 16.5901L19.3126 16.6638L18.4536 17.1456L13.4666 14.2583L13.456 15.4585L17.3921 17.7389L16.4591 18.3355L16.438 18.3475L13.4666 16.6416L13.456 17.8417L15.4029 18.9528L13.4155 20.1152L1.7973 13.3839L13.4349 6.56862L25.2344 13.2622ZM25.2344 12.062L13.4401 5.28786L1.76561 12.0552V3.01438L13.5 1.8142L25.2344 3.01438V12.062Z" fill="#192144"/>
</symbol><symbol id="htmlacademy" viewBox="0 0 60 60"><path fill="#2E368F" d="M30.2 5h-.2l-19.7 2.1v36.2l19.7 11.7 19.7-11.7v-36.2l-19.5-2.1zm17 36.8l-17.2 10.2-17.2-10.2v-14.8l17.1 10.2v1.8l-11.7-7v1.8l11.8 7.1v1.9l-11.8-7v1.8l11.8 7 11.9-7.1v-7.6l5.3-3.2v15.1zm-.1-17l-4.7 2.8-2.2 1.3-10.3-6.1v1.8l8.8 5.3h-.1l-.2.1-1.3.7-7.3-4.3v1.8l5.8 3.4-1.4.9-4.3-2.6v1.8l2.9 1.7-2.9 1.7-17-10.1 17-10.2 17.2 10zm.1-1.8l-17.3-10.2-17.1 10.2v-13.6l17.2-1.8 17.2 1.8v13.6z"/></symbol><symbol id="icon_arrow_bend" viewBox="0 0 32 16">
<path fill-rule="evenodd" clip-rule="evenodd" d="M4 16H28C30.2091 16 32 14.2091 32 12V7C32 4.79086 30.2091 3 28 3H4V5H28C29.1046 5 30 5.89543 30 7V12C30 13.1046 29.1046 14 28 14H4V16Z" fill="white"/>
<path d="M0 4L9 0.535898V7.4641L0 4Z" fill="white"/>
</symbol><symbol id="icon_bicycle" viewBox="0 0 18 17">
<path d="M13.1047 14.1719C12.5056 14.1719 11.9199 14.0019 11.4218 13.6836C10.9237 13.3652 10.5354 12.9127 10.3061 12.3832C10.0769 11.8538 10.0169 11.2712 10.1338 10.7091C10.2506 10.1471 10.5391 9.63082 10.9628 9.2256C11.3864 8.82038 11.9262 8.54443 12.5138 8.43263C13.1014 8.32083 13.7104 8.37821 14.2639 8.59751C14.8174 8.81681 15.2905 9.18819 15.6234 9.66467C15.9562 10.1412 16.1339 10.7014 16.1339 11.2744C16.133 12.0426 15.8136 12.7791 15.2457 13.3223C14.6778 13.8655 13.9078 14.171 13.1047 14.1719V14.1719ZM13.1047 9.38477C12.714 9.38477 12.332 9.49559 12.0072 9.70323C11.6823 9.91087 11.4291 10.206 11.2795 10.5513C11.13 10.8966 11.0909 11.2765 11.1671 11.6431C11.2434 12.0096 11.4315 12.3463 11.7078 12.6106C11.9841 12.8749 12.3361 13.0548 12.7193 13.1278C13.1025 13.2007 13.4997 13.1632 13.8607 13.0202C14.2217 12.8772 14.5302 12.635 14.7473 12.3242C14.9644 12.0135 15.0803 11.6482 15.0803 11.2744C15.0796 10.7734 14.8713 10.2931 14.501 9.93888C14.1306 9.58462 13.6285 9.38535 13.1047 9.38477V9.38477Z"/>
<path d="M4.41233 14.1719C3.81322 14.1719 3.22756 14.0019 2.72942 13.6836C2.23127 13.3652 1.84302 12.9127 1.61375 12.3832C1.38448 11.8538 1.32449 11.2712 1.44137 10.7091C1.55825 10.1471 1.84675 9.63082 2.27039 9.2256C2.69402 8.82038 3.23377 8.54443 3.82137 8.43263C4.40897 8.32083 5.01803 8.37821 5.57154 8.59751C6.12505 8.81681 6.59814 9.18819 6.93099 9.66467C7.26383 10.1412 7.44149 10.7014 7.44149 11.2744C7.44062 12.0426 7.1212 12.7791 6.55331 13.3223C5.98542 13.8655 5.21544 14.171 4.41233 14.1719V14.1719ZM4.41233 9.38477C4.0216 9.38477 3.63965 9.49559 3.31478 9.70323C2.9899 9.91087 2.73669 10.206 2.58717 10.5513C2.43764 10.8966 2.39852 11.2765 2.47475 11.6431C2.55097 12.0096 2.73913 12.3463 3.01541 12.6106C3.29169 12.8749 3.6437 13.0548 4.02692 13.1278C4.41014 13.2007 4.80735 13.1632 5.16834 13.0202C5.52932 12.8772 5.83786 12.635 6.05493 12.3242C6.27201 12.0135 6.38787 11.6482 6.38787 11.2744C6.38726 10.7734 6.17893 10.2931 5.80857 9.93888C5.43822 9.58462 4.93609 9.38535 4.41233 9.38477V9.38477Z"/>
<path d="M10.8658 4.09375C11.0045 4.09421 11.142 4.06835 11.2703 4.01767C11.3986 3.96699 11.5151 3.89249 11.613 3.79848C11.711 3.70447 11.7885 3.59282 11.8411 3.46997C11.8937 3.34713 11.9203 3.21553 11.9194 3.08279C11.9209 2.95071 11.8949 2.81967 11.8429 2.69732C11.7908 2.57497 11.7138 2.46377 11.6163 2.37023C11.5189 2.27668 11.4028 2.20267 11.2751 2.15252C11.1474 2.10236 11.0104 2.07707 10.8723 2.07813C10.734 2.07771 10.5969 2.10337 10.4689 2.15364C10.3409 2.2039 10.2245 2.27779 10.1264 2.37108C10.0282 2.46437 9.95025 2.57524 9.8969 2.69736C9.84355 2.81947 9.81587 2.95044 9.81543 3.08279C9.815 3.21514 9.84183 3.34627 9.89438 3.4687C9.94693 3.59113 10.0242 3.70247 10.1217 3.79634C10.2192 3.89022 10.3351 3.9648 10.4628 4.01583C10.5905 4.06686 10.7274 4.09334 10.8658 4.09375V4.09375Z"/>
<path d="M12.4314 6.10938H10.9906C10.9669 6.10938 10.9437 6.1033 10.9234 6.09178C10.903 6.08025 10.8863 6.0637 10.875 6.04387L9.82992 4.21186C9.75629 4.07571 9.65018 3.95806 9.52017 3.86843C9.39017 3.77881 9.23993 3.71972 9.08162 3.69595C8.9233 3.67218 8.76136 3.68441 8.6089 3.73163C8.45644 3.77886 8.31775 3.85975 8.20405 3.96778L5.90387 6.18496C5.71062 6.37363 5.60094 6.62633 5.59766 6.89043C5.59766 7.43843 6.01252 7.6337 6.20678 7.74392C7.14516 8.26106 7.80598 8.6393 8.16849 8.84937C8.18777 8.86059 8.2037 8.87636 8.21477 8.89517C8.22584 8.91397 8.23167 8.93518 8.23171 8.95676V11.1336C8.23171 11.4048 8.44968 11.6375 8.73317 11.6511C8.80434 11.6544 8.87547 11.6438 8.94226 11.62C9.00904 11.5963 9.07009 11.5598 9.12171 11.5128C9.17332 11.4658 9.21444 11.4093 9.24256 11.3467C9.27069 11.284 9.28524 11.2166 9.28533 11.1484V8.43995C9.28538 8.35995 9.26552 8.2811 9.22739 8.2099C9.18925 8.13871 9.13395 8.07722 9.06605 8.03052L7.8478 7.19246C7.83251 7.182 7.81973 7.16852 7.81034 7.15294C7.80095 7.13736 7.79515 7.12003 7.79334 7.10213C7.79154 7.08423 7.79375 7.06616 7.79985 7.04915C7.80595 7.03214 7.81579 7.01657 7.8287 7.0035L9.21158 5.59287C9.22576 5.57836 9.24332 5.56726 9.26284 5.56048C9.28236 5.5537 9.30328 5.55143 9.32389 5.55385C9.3445 5.55628 9.36422 5.56333 9.38144 5.57444C9.39866 5.58554 9.41289 5.60039 9.42296 5.61775L10.1414 6.85799C10.1871 6.93661 10.2539 7.00211 10.3349 7.04769C10.416 7.09327 10.5083 7.11727 10.6024 7.11719H12.4462C12.5176 7.11727 12.5882 7.10348 12.6538 7.07665C12.7195 7.04982 12.7787 7.01052 12.828 6.96113C12.8772 6.91174 12.9155 6.85329 12.9404 6.78933C12.9654 6.72536 12.9764 6.65722 12.973 6.58903C12.9592 6.31787 12.7149 6.10938 12.4314 6.10938Z"/>
</symbol><symbol id="icon_burger" viewBox="0 0 25 11">
<rect width="25" height="3" rx="1.5"/>
<rect y="8" width="25" height="3" rx="1.5"/>
</symbol><symbol id="icon_bus" viewBox="0 0 18 17">
<g clip-path="url(#clip0_16501:1216)">
<path d="M4.54498 11.0045C4.54498 10.6865 4.40784 10.4151 4.13358 10.1901C3.85931 9.96516 3.52836 9.85268 3.14073 9.85268C2.7531 9.85268 2.42216 9.96516 2.14789 10.1901C1.87362 10.4151 1.73649 10.6865 1.73649 11.0045C1.73649 11.3224 1.87362 11.5939 2.14789 11.8188C2.42216 12.0438 2.7531 12.1563 3.14073 12.1563C3.52836 12.1563 3.85931 12.0438 4.13358 11.8188C4.40784 11.5939 4.54498 11.3224 4.54498 11.0045ZM15.7789 11.0045C15.7789 10.6865 15.6418 10.4151 15.3675 10.1901C15.0933 9.96516 14.7623 9.85268 14.3747 9.85268C13.9871 9.85268 13.6561 9.96516 13.3818 10.1901C13.1076 10.4151 12.9704 10.6865 12.9704 11.0045C12.9704 11.3224 13.1076 11.5939 13.3818 11.8188C13.6561 12.0438 13.9871 12.1563 14.3747 12.1563C14.7623 12.1563 15.0933 12.0438 15.3675 11.8188C15.6418 11.5939 15.7789 11.3224 15.7789 11.0045ZM15.2743 7.44113L14.4844 3.98577C14.4478 3.8478 14.3655 3.73532 14.2376 3.64833C14.1096 3.56135 13.9615 3.51786 13.7932 3.51786H3.72218C3.55396 3.51786 3.40586 3.56135 3.27787 3.64833C3.14988 3.73532 3.0676 3.8478 3.03103 3.98577L2.24114 7.44113C2.20457 7.62109 2.25577 7.78006 2.39473 7.91804C2.53369 8.05601 2.71288 8.125 2.93229 8.125H14.5831C14.8025 8.125 14.9817 8.05601 15.1207 7.91804C15.2597 7.78006 15.3109 7.62109 15.2743 7.44113ZM12.7949 1.93415C12.7949 1.81417 12.7437 1.71219 12.6413 1.62821C12.5389 1.54422 12.4146 1.50223 12.2683 1.50223H5.2471C5.10082 1.50223 4.97649 1.54422 4.8741 1.62821C4.77171 1.71219 4.72051 1.81417 4.72051 1.93415C4.72051 2.05413 4.77171 2.15611 4.8741 2.24009C4.97649 2.32408 5.10082 2.36607 5.2471 2.36607H12.2683C12.4146 2.36607 12.5389 2.32408 12.6413 2.24009C12.7437 2.15611 12.7949 2.05413 12.7949 1.93415ZM17.1832 8.45794V13.8839H15.7789V15.0357C15.7789 15.3537 15.6418 15.6251 15.3675 15.8501C15.0933 16.075 14.7623 16.1875 14.3747 16.1875C13.9871 16.1875 13.6561 16.075 13.3818 15.8501C13.1076 15.6251 12.9704 15.3537 12.9704 15.0357V13.8839H4.54498V15.0357C4.54498 15.3537 4.40784 15.6251 4.13358 15.8501C3.85931 16.075 3.52836 16.1875 3.14073 16.1875C2.7531 16.1875 2.42216 16.075 2.14789 15.8501C1.87362 15.6251 1.73649 15.3537 1.73649 15.0357V13.8839H0.332245V8.45794C0.332245 7.78606 0.423667 7.11719 0.606511 6.45131L1.73649 2.36607C1.80231 1.89816 2.15886 1.48723 2.80613 1.1333C3.4534 0.779367 4.29448 0.512416 5.32938 0.33245C6.36428 0.152483 7.50706 0.0625 8.75771 0.0625C10.0084 0.0625 11.1511 0.152483 12.186 0.33245C13.2209 0.512416 14.062 0.779367 14.7093 1.1333C15.3566 1.48723 15.7131 1.89816 15.7789 2.36607L16.9309 6.45131C17.0991 7.0632 17.1832 7.73207 17.1832 8.45794Z"/>
</g>

</symbol><symbol id="icon_businessman" viewBox="0 0 28 28">
<path d="M23.3758 23.2418V19.8933C23.3758 18.9558 23.2418 18.0182 22.7061 17.0806C22.1703 16.143 21.5006 15.3394 20.5631 14.8036C19.6255 14.1339 17.6164 14 16.6788 14L14.5358 16.277L15.3394 18.0182V22.0364L14 23.5097L12.6606 22.0364V18.0182L13.5982 16.277L11.3212 14C10.2497 14 8.24063 14.1339 7.30306 14.8036C6.36548 15.3394 5.82972 16.143 5.29396 17.0806C4.75821 18.0182 4.62427 18.8218 4.62427 19.8933V23.2418C4.62427 23.2418 8.10669 24.7151 14 24.7151C19.8934 24.7151 23.3758 23.2418 23.3758 23.2418Z" fill="#132576"/>
<path d="M14 3.41895C11.4551 3.41895 9.98178 5.82985 10.3836 8.50864C10.7854 11.1874 12.1248 13.0626 14 13.0626C15.8751 13.0626 17.2145 11.1874 17.6163 8.50864C18.0181 5.69592 16.5448 3.41895 14 3.41895V3.41895Z" fill="#132576"/>
</symbol><symbol id="icon_call" viewBox="0 0 19 19">
  <path d="M9.77423 8.22389C9.77423 8.41289 9.92786 8.56139 10.1156 8.56139C10.5048 8.56139 10.8189 8.87526 10.8189 9.25664C10.8189 9.44226 10.9725 9.59414 11.1602 9.59414C11.348 9.59414 11.5016 9.44226 11.5016 9.25664C11.5016 8.50064 10.8803 7.88639 10.1156 7.88639C9.92786 7.88639 9.77423 8.03827 9.77423 8.22389ZM15.3319 9.59414C15.5231 9.59414 15.6733 9.44226 15.6733 9.25664C15.6733 6.22589 13.1812 3.76215 10.1156 3.76215C9.92786 3.76215 9.77423 3.914 9.77423 4.09965C9.77423 4.28527 9.92786 4.43715 10.1156 4.43715C12.8057 4.43715 14.9905 6.60051 14.9905 9.25664C14.9905 9.44226 15.1441 9.59414 15.3319 9.59414Z" fill="#161C35"/>
  <path d="M12.9047 9.25661C12.9047 9.44223 13.0583 9.59411 13.2461 9.59411C13.4338 9.59411 13.5874 9.44223 13.5874 9.25661C13.5874 7.36324 12.0307 5.82424 10.1156 5.82424C9.92786 5.82424 9.77423 5.97612 9.77423 6.16174C9.77423 6.35074 9.92786 6.49924 10.1156 6.49924C11.6552 6.49924 12.9047 7.73786 12.9047 9.25661ZM10.1156 1.69998C9.92786 1.69998 9.77423 1.85186 9.77423 2.03748C9.77423 2.22312 9.92786 2.37498 10.1156 2.37498C13.9561 2.37498 17.0798 5.46312 17.0798 9.25661C17.0798 9.44223 17.23 9.59411 17.4211 9.59411C17.6089 9.59411 17.7625 9.44223 17.7625 9.25661C17.7625 5.0885 14.3316 1.69998 10.1156 1.69998ZM13.4509 12.8139L13.0037 13.0535C12.2492 13.4619 11.6621 14.5812 10.7311 13.7375L8.30007 11.3L6.2 9.25661C5.14491 7.92348 6.32631 7.60623 6.73936 6.85699L6.98175 6.41825C7.25485 5.91873 7.35384 5.35849 7.27191 4.79823C7.1934 4.23799 6.93737 3.72836 6.52771 3.32336C6.02931 2.83062 5.36703 2.56062 4.66038 2.56062C3.95372 2.56062 3.28802 2.83062 2.7896 3.32336L2.61552 3.49886C1.69379 4.41012 1.58796 5.97948 2.3151 7.92348C3.00126 9.77973 4.38386 11.7912 6.2 13.5867C8.96858 16.3239 12.0512 17.9 14.2634 17.9C15.1373 17.9 15.8781 17.6536 16.4038 17.1339L16.5813 16.9584C17.0763 16.469 17.3529 15.8142 17.3563 15.1089C17.3529 14.4204 17.0695 13.7454 16.5813 13.2627C15.7586 12.4494 14.4716 12.2671 13.4509 12.8139Z" fill="#161C35"/>
</symbol><symbol id="icon_check-mark" viewBox="0 0 18 17">
<path d="M7.38679 14.1809L4 10.5V10V9C4 9.04093 4 8.95907 4 9C4 8.78516 4.00007 8.5 4.00007 8.5V7.5L7.37736 10.7561C7.49314 10.8776 7.68161 10.8761 7.79738 10.7547L15.0001 3V5.07271V6C15.0001 6.5 15.0001 6.5 15.0001 6.5L8.80839 13.1208L8.80974 13.1222L7.80681 14.1795C7.69103 14.3009 7.50256 14.3009 7.38679 14.1809Z" fill="#161C35"/>
</symbol><symbol id="icon_close-full" viewBox="0 0 25 22">
<g clip-path="url(#clip0_13536_5348)">
<path d="M21.5 2.75L3.5 19.25" stroke="#192144" stroke-width="2.8" stroke-linecap="round" stroke-linejoin="round"/>
<path d="M3.5 2.75L21.5 19.25" stroke="#192144" stroke-width="2.8" stroke-linecap="round" stroke-linejoin="round"/>
</g>

</symbol><symbol id="icon_close" viewBox="0 0 9 9">
<path d="M7.875 1.125L1.125 7.875" stroke="#AFB0B5" stroke-linecap="round" stroke-linejoin="round"/>
<path d="M1.125 1.125L7.875 7.875" stroke="#AFB0B5" stroke-linecap="round" stroke-linejoin="round"/>
</symbol><symbol id="icon_email" viewBox="0 0 19 13">
<path fill-rule="evenodd" clip-rule="evenodd" d="M16.1393 10.4663L11.8089 6.5L16.1393 2.53365L15.5488 1.90264L9.25 7.67188L2.9512 1.90264L2.36069 2.53365L6.69112 6.5L2.36069 10.4663L2.9512 11.0974L7.33084 7.08594L9.25 8.84375L11.1692 7.08594L15.5488 11.0974L16.1393 10.4663ZM1.57597 0.25C0.76695 0.25 0.111115 0.948839 0.111115 1.80786V11.1921C0.111115 12.0525 0.76163 12.75 1.57597 12.75H16.924C17.7331 12.75 18.3889 12.0512 18.3889 11.1921V1.80786C18.3889 0.947478 17.7384 0.25 16.924 0.25H1.57597Z"/>
</symbol><symbol id="icon_facebook" viewBox="0 0 11 21">
  <path d="M7.48786 20.8125H2.12929V11.1375H0V6.3525H2.06643C1.90929 4.185 2.30214 2.6025 3.26071 1.5225C3.71777 1.04316 4.27461 0.66015 4.89562 0.397985C5.51662 0.13582 6.18812 0.000268301 6.86714 0L10.6229 0V4.6125H7.66857C7.49452 5.1766 7.42799 5.76595 7.47214 6.3525H10.615V11.1375H7.47214L7.48786 20.8125ZM3.31571 19.6875H6.28571V10.0125H9.42857V7.5H6.28571V6.93C6.28571 5.43 6.28571 4.0875 7.07143 3.585L7.22071 3.4875H9.42857V1.125H6.89857C6.38444 1.11866 5.87465 1.21553 5.40225 1.40933C4.92986 1.60314 4.50541 1.88955 4.15643 2.25C3.37071 3.1725 3.04857 4.7175 3.29214 6.855L3.37071 7.4775H1.17857V10.0125H3.31571V19.6875Z" fill="#192144"/>
</symbol><symbol id="icon_filter" viewBox="0 0 16 10">
<rect x="7.17391" width="7.82609" height="2" fill="#192144"/>
<rect x="7.17383" y="8" width="7.82609" height="2" fill="#192144"/>
<rect y="4" width="7.82609" height="2" fill="#192144"/>
<rect x="3.91304" width="1.95652" height="2" fill="#192144"/>
<rect x="3.91309" y="8" width="1.95652" height="2" fill="#192144"/>
<rect x="9.13037" y="4" width="1.95652" height="2" fill="#192144"/>
<rect width="2.6087" height="2" fill="#192144"/>
<rect y="8" width="2.6087" height="2" fill="#192144"/>
<rect x="12.3914" y="4" width="2.6087" height="2" fill="#192144"/>
</symbol><symbol id="icon_instagram" viewBox="0 0 18 18">
  <path d="M12.9602 1.80061C13.8189 1.80251 14.6419 2.14448 15.2491 2.75169C15.8563 3.35889 16.1982 4.18189 16.2002 5.04061V12.9606C16.1982 13.8193 15.8563 14.6423 15.2491 15.2495C14.6419 15.8567 13.8189 16.1987 12.9602 16.2006H5.04015C4.18269 16.1968 3.36153 15.854 2.75588 15.247C2.15022 14.64 1.80925 13.8181 1.80735 12.9606V5.04061C1.80925 4.18314 2.15022 3.36122 2.75588 2.75422C3.36153 2.14722 4.18269 1.80441 5.04015 1.80061H12.9602ZM12.9602 0.720612H5.04015C3.89442 0.720612 2.79561 1.17575 1.98545 1.98591C1.1753 2.79607 0.720154 3.89488 0.720154 5.04061L0.720154 12.9606C0.720154 14.1063 1.1753 15.2052 1.98545 16.0153C2.79561 16.8255 3.89442 17.2806 5.04015 17.2806H12.9602C14.1059 17.2806 15.2047 16.8255 16.0149 16.0153C16.825 15.2052 17.2802 14.1063 17.2802 12.9606V5.04061C17.2802 3.89488 16.825 2.79607 16.0149 1.98591C15.2047 1.17575 14.1059 0.720612 12.9602 0.720612V0.720612Z" fill="#192144"/>
  <path d="M9.00697 5.81737C9.63781 5.81737 10.2545 6.00444 10.779 6.35492C11.3035 6.7054 11.7124 7.20354 11.9538 7.78637C12.1952 8.36919 12.2584 9.01051 12.1353 9.62923C12.0122 10.248 11.7084 10.8163 11.2624 11.2624C10.8163 11.7084 10.248 12.0122 9.62923 12.1353C9.01051 12.2584 8.36918 12.1952 7.78636 11.9538C7.20354 11.7124 6.70539 11.3035 6.35491 10.779C6.00443 10.2545 5.81737 9.63782 5.81737 9.00697C5.81642 8.58784 5.89827 8.17265 6.05823 7.78524C6.21818 7.39784 6.45309 7.04584 6.74946 6.74947C7.04583 6.4531 7.39783 6.21819 7.78524 6.05823C8.17265 5.89828 8.58784 5.81642 9.00697 5.81737ZM9.00697 4.73737C8.16222 4.73595 7.33602 4.98514 6.63295 5.45343C5.92987 5.92171 5.3815 6.58803 5.05724 7.36807C4.73298 8.14811 4.6474 9.00681 4.81133 9.83551C4.97526 10.6642 5.38133 11.4256 5.97816 12.0235C6.57498 12.6213 7.33574 13.0287 8.16416 13.194C8.99258 13.3593 9.85142 13.2752 10.632 12.9523C11.4126 12.6293 12.0798 12.0821 12.5493 11.3798C13.0188 10.6775 13.2694 9.85173 13.2694 9.00697C13.2703 8.44662 13.1608 7.89158 12.947 7.37361C12.7332 6.85564 12.4194 6.38491 12.0235 5.98835C11.6276 5.59178 11.1574 5.27717 10.6398 5.06252C10.1222 4.84786 9.56732 4.73737 9.00697 4.73737Z" fill="#192144"/>
  <path d="M13.4282 5.55936C13.9611 5.55936 14.393 5.12741 14.393 4.59456C14.393 4.06172 13.9611 3.62976 13.4282 3.62976C12.8954 3.62976 12.4634 4.06172 12.4634 4.59456C12.4634 5.12741 12.8954 5.55936 13.4282 5.55936Z" fill="#192144"/>
</symbol><symbol id="icon_like" viewBox="0 0 20 20">
<g opacity="0.5">
<path fill-rule="evenodd" clip-rule="evenodd" d="M10 8.12436L11.1175 5.77557C11.395 5.19396 11.8762 4.35764 12.5575 3.68149C13.2275 3.01585 14.03 2.5629 15 2.5629C17.095 2.5629 18.75 4.30381 18.75 6.39658C18.75 7.9865 18.0575 9.10903 16.415 10.8211C15.9937 11.2596 15.5138 11.7335 14.9825 12.2561C13.5975 13.6215 11.875 15.3204 10 17.5917C8.125 15.3204 6.4025 13.6215 5.0175 12.2561C4.48625 11.7335 4.005 11.2583 3.585 10.8211C1.9425 9.10903 1.25 7.9865 1.25 6.39658C1.25 4.30381 2.905 2.5629 5 2.5629C5.97 2.5629 6.7725 3.01585 7.4425 3.68149C8.12375 4.35764 8.605 5.19396 8.8825 5.77557L10 8.12436ZM10.49 19.0109C10.4298 19.0858 10.3548 19.146 10.2701 19.1873C10.1855 19.2286 10.0933 19.25 10 19.25C9.90668 19.25 9.81449 19.2286 9.72986 19.1873C9.64523 19.146 9.57019 19.0858 9.51 19.0109C7.50875 16.5138 5.6975 14.7283 4.20625 13.2591C1.625 10.7134 0 9.11297 0 6.39658C0 3.55414 2.2375 1.25 5 1.25C7 1.25 8.39875 2.62855 9.255 3.88631C9.58 4.36552 9.8275 4.82635 10 5.18871C10.2162 4.73519 10.4653 4.29978 10.745 3.88631C11.6012 2.62723 13 1.25 15 1.25C17.7625 1.25 20 3.55414 20 6.39658C20 9.11297 18.375 10.7134 15.7938 13.2591C14.3025 14.7296 12.4913 16.5151 10.49 19.0096V19.0109Z" fill="currentColor"/>
</g>
</symbol><symbol id="icon_location" viewBox="0 0 21 21">
<path d="M10.5 0C6.15169 0 2.625 3.52669 2.625 7.875C2.625 12.9334 6.42846 15.1449 7.26923 16.1538C9.28846 18.5769 9.40257 21 10.5 21C11.5974 21 11.7115 18.5769 13.7308 16.1538C14.5715 15.1449 18.375 12.9334 18.375 7.875C18.375 3.52669 14.8483 0 10.5 0ZM10.5 13.125C7.60069 13.125 5.25 10.7743 5.25 7.875C5.25 4.97569 7.60069 2.625 10.5 2.625C13.3993 2.625 15.75 4.97569 15.75 7.875C15.75 10.7743 13.3993 13.125 10.5 13.125ZM10.5 5.25C9.051 5.25 7.875 6.426 7.875 7.875C7.875 9.324 9.051 10.5 10.5 10.5C11.949 10.5 13.125 9.324 13.125 7.875C13.125 6.426 11.949 5.25 10.5 5.25Z" fill="#FFD74B"/>
<ellipse cx="10.5" cy="7.875" rx="0.875001" ry="0.875" fill="#161C35"/>
</symbol><symbol id="icon_mail" viewBox="0 0 19 17">
  <path d="M2.01661 3.32528L8.76661 7.55572C8.99341 7.69747 9.28681 7.76467 9.58201 7.76467C9.87721 7.76467 10.1706 7.69747 10.3974 7.55572L17.1474 3.32528C17.5875 3.04913 18.0033 1.97498 17.196 1.97498H1.96891C1.16161 1.97498 1.57741 3.04913 2.01661 3.32528ZM17.3517 5.63842L10.3974 9.86677C10.0914 10.0537 9.87721 10.0757 9.58201 10.0757C9.28681 10.0757 9.07261 10.0537 8.76661 9.86677C8.46061 9.67987 2.34691 5.94082 1.84741 5.63737C1.49641 5.42317 1.50001 5.67412 1.50001 5.86732V13.525C1.50001 13.966 2.00941 14.575 2.40001 14.575H16.8C17.1906 14.575 17.7 13.966 17.7 13.525V5.86837C17.7 5.67517 17.7036 5.42422 17.3517 5.63842Z" fill="#161C35"/>
</symbol><symbol id="icon_map" viewBox="0 0 56 56">
<circle cx="28" cy="28" r="27" fill="white"/>
<circle cx="28" cy="27" r="12" fill="#182044"/>
</symbol><symbol id="icon_mobile" viewBox="0 0 17 17">
<path d="M11.9047 8.25661C11.9047 8.44223 12.0583 8.59411 12.2461 8.59411C12.4338 8.59411 12.5874 8.44223 12.5874 8.25661C12.5874 6.36324 11.0308 4.82424 9.11562 4.82424C8.92787 4.82424 8.77424 4.97612 8.77424 5.16174C8.77424 5.35074 8.92787 5.49924 9.11562 5.49924C10.6552 5.49924 11.9047 6.73786 11.9047 8.25661ZM9.11562 0.699982C8.92787 0.699982 8.77424 0.851861 8.77424 1.03748C8.77424 1.22312 8.92787 1.37498 9.11562 1.37498C12.9561 1.37498 16.0798 4.46312 16.0798 8.25661C16.0798 8.44223 16.23 8.59411 16.4211 8.59411C16.6089 8.59411 16.7625 8.44223 16.7625 8.25661C16.7625 4.0885 13.3316 0.699982 9.11562 0.699982ZM12.4509 11.8139L12.0037 12.0535C11.2492 12.4619 10.6622 13.5812 9.73112 12.7375L7.30008 10.3L5.20001 8.25661C4.14492 6.92348 5.32632 6.60623 5.73938 5.85699L5.98176 5.41825C6.25486 4.91873 6.35385 4.35849 6.27193 3.79823C6.19342 3.23799 5.93738 2.72836 5.52772 2.32336C5.02932 1.83062 4.36704 1.56062 3.66039 1.56062C2.95373 1.56062 2.28804 1.83062 1.78961 2.32336L1.61553 2.49886C0.6938 3.41012 0.587974 4.97948 1.31511 6.92348C2.00127 8.77973 3.38387 10.7912 5.20001 12.5867C7.96859 15.3239 11.0512 16.9 13.2634 16.9C14.1373 16.9 14.8781 16.6536 15.4038 16.1339L15.5813 15.9584C16.0763 15.469 16.3529 14.8142 16.3563 14.1089C16.3529 13.4204 16.0695 12.7454 15.5813 12.2627C14.7586 11.4494 13.4716 11.2671 12.4509 11.8139Z" fill="#161C35"/>
</symbol><symbol id="icon_phone" viewBox="0 0 17 15">
<path fill-rule="evenodd" clip-rule="evenodd" d="M8.50001 0.0861511C5.70356 0.0861511 2.90039 0.558819 1.88328 1.50093C1.0394 2.28252 0.7581 3.66329 0.663275 4.53753C0.663275 4.53753 0.650208 4.62393 0.650208 4.66109C0.650208 5.00391 0.944508 5.27887 1.30433 5.27887C1.34684 5.27887 2.92008 5.15837 3.86857 5.08425C3.8914 5.08112 3.9144 5.07806 3.93722 5.07191C4.29049 5.0627 4.57511 4.7908 4.57511 4.45413L4.57828 3.237C4.57828 2.86014 4.9022 2.55737 5.30126 2.55737H11.6987C12.0979 2.55737 12.4218 2.86011 12.4218 3.237L12.425 4.45413C12.425 4.7908 12.7096 5.0627 13.0628 5.07191C13.0855 5.0781 13.1085 5.08112 13.1316 5.08425C14.0802 5.15834 15.6534 5.27887 15.6957 5.27887C16.0554 5.27887 16.3499 5.00391 16.3499 4.66109C16.3499 4.62393 16.3369 4.53753 16.3369 4.53753C16.242 3.66329 15.961 2.28255 15.1171 1.50093C14.0996 0.558819 11.2965 0.0861511 8.50001 0.0861511ZM8.50001 8.11773C7.77717 8.11773 7.1917 8.67064 7.1917 9.35333C7.1917 10.036 7.77717 10.5889 8.50001 10.5889C9.22285 10.5889 9.80829 10.036 9.80829 9.35333C9.80829 8.67064 9.22285 8.11773 8.50001 8.11773ZM7.51879 5.33752V4.56528C7.51879 4.13902 7.15242 3.79304 6.70113 3.79304C6.24983 3.79304 5.88346 4.13905 5.88346 4.56528V5.33752L1.47101 9.7889C1.16695 10.07 0.977196 10.4622 0.977196 10.8948V12.1335C0.977196 12.8162 1.5627 13.3691 2.28551 13.3691H2.6126V14.1414C2.6126 14.5677 2.97901 14.9136 3.43031 14.9136C3.8816 14.9136 4.24798 14.5677 4.24798 14.1414V13.3691H12.752V14.1414C12.752 14.5677 13.1183 14.9136 13.5698 14.9136C14.0211 14.9136 14.3874 14.5677 14.3874 14.1414V13.3691H14.7145C15.4373 13.3691 16.0228 12.8162 16.0228 12.1335V10.8948C16.0228 10.4622 15.833 10.07 15.5289 9.7889L11.1167 5.33752V4.56528C11.1167 4.13902 10.7502 3.79304 10.2989 3.79304C9.84763 3.79304 9.4813 4.13905 9.4813 4.56528V5.33752H7.51879ZM8.50001 6.8821C9.9457 6.8821 11.1167 7.98799 11.1167 9.35333C11.1167 10.7187 9.94573 11.8247 8.50001 11.8247C7.05432 11.8247 5.88342 10.7187 5.88342 9.35333C5.88342 7.98795 7.05432 6.8821 8.50001 6.8821Z"/>
</symbol><symbol id="icon_plane" viewBox="0 0 18 17">
<g clip-path="url(#clip0_16501:1213)">
<path d="M13.9146 0.927695C13.3249 1.05994 12.7325 1.19281 12.5121 1.55688L10.8065 4.7625L1.64828 6.81634L1.27723 7.84059L8.28531 8.46568L7.09628 11.2408L4.43851 11.8368L3.77123 12.9275L5.68861 13.1239L5.90725 14.0159C6.00521 14.3321 6.34902 14.5432 6.64248 14.4774L7.5284 14.2787L8.55537 15.9305L9.22266 14.8398L8.56673 12.1638L10.491 9.85016L14.1627 15.9287L14.9031 15.1363L12.6435 5.91794L14.7185 2.94416C14.9416 2.57946 14.7961 1.98572 14.6499 1.38919C14.5774 1.09371 14.2081 0.861883 13.9146 0.927695Z"/>
</g>

</symbol><symbol id="icon_plus" viewBox="0 0 18 18">
<rect y="8.30762" width="18" height="1.38461" rx="0.692307" fill="#1D2E5B"/>
<rect x="8.30769" y="18" width="18" height="1.38461" rx="0.692307" transform="rotate(-90 8.30769 18)" fill="#1D2E5B"/>
</symbol><symbol id="icon_run" viewBox="0 0 18 17">
<path d="M12.2706 4.09375C13.0464 4.09375 13.6754 3.49213 13.6754 2.75C13.6754 2.00787 13.0464 1.40625 12.2706 1.40625C11.4947 1.40625 10.8658 2.00787 10.8658 2.75C10.8658 3.49213 11.4947 4.09375 12.2706 4.09375Z"/>
<path d="M11.4116 7.43228C11.5728 7.66211 11.8041 7.83891 12.074 7.93868C12.3439 8.03844 12.6394 8.05634 12.9203 7.98993L15.2495 7.43295L14.9103 6.12951L12.5811 6.68649L11.6124 5.29773C11.4055 5.00114 11.0843 4.79488 10.719 4.72395L8.01748 4.2066C7.71526 4.14859 7.40148 4.18736 7.1246 4.31693C6.84771 4.4465 6.62312 4.65966 6.48552 4.92349L5.32091 7.15143L6.57753 7.75276L7.74214 5.52415L9.12379 5.78887L5.55131 11.4844H2.4368V12.8281H5.55131C6.04159 12.8281 6.50308 12.5782 6.75595 12.1757L8.10318 10.0284L11.734 10.7231L13.0095 14.3842L14.3413 13.9589L13.0664 10.2985C12.9878 10.0738 12.8486 9.87284 12.6628 9.71596C12.4771 9.55909 12.2515 9.45179 12.0086 9.4049L9.87397 8.99707L11.1186 7.01235L11.4116 7.43228V7.43228Z"/>
</symbol><symbol id="icon_triangle" viewBox="0 0 10 5">
<path d="M5 0L9.33013 4.5H0.669873L5 0Z" fill="#192144"/>
</symbol><symbol id="icon_user-tablet" viewBox="0 0 24 24">
<path opacity="0.1" d="M7.5 6.73684C7.5 9.34842 9.519 11.4737 12 11.4737C14.481 11.4737 16.5 9.34842 16.5 6.73684C16.5 4.12526 14.481 2 12 2C9.519 2 7.5 4.12526 7.5 6.73684ZM20 22H21V20.9474C21 16.8853 17.859 13.5789 14 13.5789H10C6.14 13.5789 3 16.8853 3 20.9474V22H20Z" fill="#192144"/>
</symbol><symbol id="icon_user" viewBox="0 0 14 14">
<path opacity="0.1" d="M4.375 3.92978C4.375 5.45321 5.55275 6.69294 7 6.69294C8.44725 6.69294 9.625 5.45321 9.625 3.92978C9.625 2.40636 8.44725 1.16663 7 1.16663C5.55275 1.16663 4.375 2.40636 4.375 3.92978ZM11.6667 12.8333H12.25V12.2193C12.25 9.8497 10.4177 7.92101 8.16667 7.92101H5.83333C3.58167 7.92101 1.75 9.8497 1.75 12.2193V12.8333H11.6667Z" fill="#192144"/>
</symbol><symbol id="icon_vkontakte" viewBox="0 0 23 12">
  <path d="M17.7664 11.8331C17.219 11.8207 16.6854 11.6573 16.2232 11.3606C15.7407 11.031 15.2975 10.6459 14.9026 10.2132C14.5761 9.88315 14.0345 9.32815 13.8268 9.32815C13.619 9.32815 13.4706 10.0181 13.478 10.5056C13.4812 10.8422 13.3564 11.167 13.1293 11.4131C12.8712 11.6263 12.5561 11.7569 12.2242 11.7881H10.7997C8.75222 11.7426 6.79178 10.9425 5.28708 9.53815C2.55676 7.01065 0.21224 2.18065 0.115789 1.97065C0.0237889 1.79521 -0.0147389 1.59616 0.00506792 1.3986C0.0248747 1.20105 0.102128 1.01386 0.227079 0.860649C0.509857 0.622256 0.867951 0.494496 1.23611 0.500649H4.26321H4.35224C4.6027 0.537588 4.84277 0.626997 5.05708 0.763149C5.25875 0.899848 5.42022 1.08899 5.5245 1.31065C5.8444 2.00295 6.2113 2.67204 6.62256 3.31315C7.5945 4.81315 8.02482 5.15815 8.18063 5.23315C8.35396 4.52985 8.40169 3.80091 8.3216 3.08065C8.3476 2.7526 8.29412 2.4231 8.16579 2.12065C8.00289 1.98893 7.80288 1.91278 7.5945 1.90315L7.05289 1.38565C6.94901 0.890649 7.49063 0.463149 7.86902 0.298149C8.62414 0.0589723 9.41638 -0.0376377 10.2061 0.013149H10.7329C11.2686 -0.000953053 11.8041 0.0494006 12.328 0.163149C13.5893 0.433149 13.5448 1.46065 13.4929 2.64565C13.4929 2.99065 13.4558 3.39565 13.4558 3.86065C13.4558 3.97315 13.4558 4.09315 13.4558 4.22065C13.4266 4.54717 13.4492 4.87631 13.5226 5.19565C14.1402 4.67331 14.6604 4.04337 15.0584 3.33565C15.4879 2.66645 15.865 1.96431 16.1861 1.23565C16.2839 1.00519 16.4516 0.812043 16.6649 0.684009C16.8782 0.555974 17.1262 0.499653 17.3732 0.523149H20.5487C20.6425 0.514104 20.7369 0.514104 20.8306 0.523149C21.5726 0.523149 22.0103 0.740649 22.1884 1.16065C22.3664 1.58065 22.3145 2.40565 20.4374 4.61815L19.6955 5.46565C19.336 5.81847 19.0264 6.21976 18.7755 6.65815C19.0565 6.98108 19.3754 7.2682 19.7251 7.51315C20.5778 8.16264 21.3283 8.93894 21.951 9.81565C22.097 9.98613 22.1925 10.1948 22.2266 10.4176C22.2608 10.6405 22.2321 10.8685 22.1439 11.0756C21.9884 11.3051 21.7803 11.4931 21.5375 11.6237C21.2946 11.7542 21.0241 11.8235 20.749 11.8256L17.9371 11.8631L17.7664 11.8331ZM13.8268 8.20315C14.4945 8.20315 15.0732 8.79565 15.689 9.41815C16.0217 9.78534 16.3951 10.1125 16.8019 10.3931C17.1096 10.6 17.4711 10.7096 17.8406 10.7081H17.9148L20.7342 10.6706C20.8732 10.6626 21.0094 10.6269 21.1348 10.5656L21.0606 10.4456C20.499 9.67196 19.8292 8.98479 19.0722 8.40565C18.1893 7.65565 17.7368 7.30315 17.6848 6.72565C17.6329 6.14815 18.0484 5.64565 18.8793 4.69315L19.6213 3.86065C20.2477 3.21479 20.7619 2.46681 21.1422 1.64815C20.9767 1.63823 20.8107 1.63823 20.6451 1.64815H17.4029C17.3443 1.6349 17.2835 1.6349 17.2248 1.64815C16.8814 2.44423 16.4719 3.20947 16.0006 3.93565C14.5984 6.05065 13.938 6.33565 13.4706 6.33565C13.3257 6.33565 13.183 6.29959 13.0551 6.23065C12.3132 5.80315 12.3132 4.85065 12.3577 4.16065C12.3577 4.04815 12.3577 3.93565 12.3577 3.83815C12.3577 3.35065 12.3577 2.93065 12.3948 2.57065C12.4542 1.31065 12.3948 1.30315 12.1129 1.23565C11.6586 1.14491 11.1958 1.10467 10.7329 1.11565H10.221C9.74988 1.10581 9.27872 1.13088 8.81127 1.19065C8.88206 1.24338 8.94459 1.30659 8.99676 1.37815C9.30278 1.8659 9.4554 2.43595 9.4345 3.01315C9.53095 4.25065 9.47902 5.86315 8.69256 6.25315C8.5533 6.31903 8.40115 6.35235 8.2474 6.35065C7.5574 6.35065 6.87482 5.69065 5.70998 3.90565C5.26298 3.22218 4.86383 2.50794 4.51547 1.76815L4.45611 1.69315C4.38118 1.65454 4.30126 1.62677 4.21869 1.61065H1.25095H1.19901C1.63676 2.52565 3.71418 6.57565 6.03643 8.69815C7.34044 9.90918 9.02993 10.6088 10.7997 10.6706H12.1722C12.2422 10.6555 12.3097 10.6303 12.3726 10.5956C12.3726 10.5956 12.3726 10.5956 12.3726 10.5281C12.3726 10.3256 12.3726 8.57815 13.5448 8.27815C13.6356 8.24202 13.7302 8.21685 13.8268 8.20315Z" fill="#192144"/>
</symbol><symbol id="line-decor-tablet" viewBox="0 0 14 274">
<circle cx="7" cy="7" r="7" fill="#1D2E5B"/>
<circle cx="7" cy="267" r="7" fill="#1D2E5B"/>
<line x1="7" y1="13" x2="7" y2="261" stroke="#1D2E5B" stroke-width="2"/>
</symbol><symbol id="line-decor" viewBox="0 0 17 287">
<circle cx="14" cy="3" r="3" fill="#1D2E5B"/>
<circle cx="14" cy="284" r="3" fill="#1D2E5B"/>
<rect x="2" y="2" width="11" height="2" fill="#1D2E5B"/>
<rect y="283" width="12" height="2" fill="#1D2E5B"/>
<rect y="285" width="283" height="2" transform="rotate(-90 0 285)" fill="#1D2E5B"/>
</symbol><symbol id="logo-dark-mobile" viewBox="0 0 96 15">
<path d="M94.9113 6.18874C95.6371 5.72747 96 5.01634 96 4.05535C96 2.79967 95.4774 1.81306 94.4322 1.09552C93.4161 0.365174 92.2185 0 90.8394 0C89.4894 0 88.2555 0.397207 87.1378 1.19162C86.0345 1.97322 85.4829 3.01749 85.4829 4.32443C85.4829 4.81133 85.6353 5.21494 85.9402 5.53527C86.245 5.84278 86.6805 5.99654 87.2467 5.99654C87.7983 5.99654 88.2192 5.84278 88.5096 5.53527C88.8144 5.21494 88.9668 4.81133 88.9668 4.32443C88.9378 3.95285 89.0612 3.57486 89.337 3.19047C89.6128 2.79326 90.1136 2.59466 90.8394 2.59466C91.4491 2.60747 91.8846 2.76123 92.1459 3.05593C92.4217 3.35063 92.5451 3.64533 92.5161 3.94003C92.5161 4.14504 92.4435 4.35005 92.2983 4.55506C92.1532 4.76007 92.0008 4.92024 91.8411 5.03556C91.6959 5.15087 91.4564 5.31745 91.1225 5.53527C90.7886 5.75309 90.5564 5.90685 90.4257 5.99654C89.6709 6.54751 89.2935 7.27785 89.2935 8.18759C89.2935 8.63604 89.4531 9.01403 89.7725 9.32155C90.1064 9.61625 90.5491 9.7636 91.1007 9.7636C91.6524 9.7636 92.0878 9.61625 92.4072 9.32155C92.7411 9.01403 92.908 8.63604 92.908 8.18759C92.908 7.99539 92.9443 7.816 93.0169 7.64943C93.0895 7.48286 93.2056 7.32911 93.3653 7.18816C93.5395 7.04722 93.6846 6.9319 93.8008 6.84221C93.9314 6.75252 94.1201 6.6372 94.3669 6.49625C94.6282 6.35531 94.8097 6.2528 94.9113 6.18874Z" fill="#192144"/>
<path d="M76.3053 10.2354L80.1618 5.46351C80.5573 4.88748 81.0941 4.56674 81.7722 4.50128C82.4502 4.42273 83.0435 4.58638 83.5521 4.99221C84.0606 5.39805 84.3008 5.94135 84.2725 6.62211V13.4559C84.2725 13.8879 84.103 14.2545 83.764 14.5556C83.4391 14.8436 83.0435 14.9876 82.5774 14.9876C82.1112 14.9876 81.7086 14.8436 81.3696 14.5556C81.0447 14.2545 80.8822 13.8879 80.8822 13.4559V9.21424L77.0257 13.9861C76.6302 14.5622 76.0934 14.8829 75.4153 14.9484C74.7373 15.0269 74.144 14.8633 73.6354 14.4574C73.1269 14.0516 72.8867 13.5083 72.915 12.8275V6.01336C72.915 5.58133 73.0774 5.21477 73.4023 4.91367C73.7414 4.61256 74.144 4.46201 74.6101 4.46201C75.0763 4.46201 75.4718 4.61256 75.7967 4.91367C76.1358 5.21477 76.3053 5.58133 76.3053 6.01336V10.2354Z" fill="#192144"/>
<path fill-rule="evenodd" clip-rule="evenodd" d="M58.967 13.3889V5.97502C58.967 5.54871 58.7887 5.18234 58.4323 4.87593C58.0901 4.5562 57.6837 4.39633 57.2132 4.39633C56.7569 4.39633 56.3576 4.5562 56.0154 4.87593C55.6732 5.18234 55.5021 5.54871 55.5021 5.97502V5.79517C55.331 5.3955 54.9888 5.05578 54.4755 4.77601C53.9622 4.48292 53.3776 4.33638 52.7217 4.33638C51.4384 4.33638 50.2549 4.80932 49.1712 5.7552C48.1161 6.70109 47.5885 8.00001 47.5885 9.65198C47.5885 11.3439 48.109 12.6562 49.1498 13.5887C50.1907 14.5213 51.3813 14.9876 52.7217 14.9876C53.3776 14.9876 53.955 14.8677 54.4541 14.6279C54.9531 14.3747 55.3167 14.075 55.5449 13.7286C55.6304 14.0883 55.8301 14.3881 56.1438 14.6279C56.4574 14.8543 56.8139 14.9676 57.2132 14.9676C57.6837 14.9676 58.0901 14.8144 58.4323 14.508C58.7887 14.2015 58.967 13.8285 58.967 13.3889ZM53.4968 12.0265C54.6657 12.0265 55.6133 11.0009 55.6133 9.73559C55.6133 8.47034 54.6657 7.44464 53.4968 7.44464C52.328 7.44464 51.3804 8.47034 51.3804 9.73559C51.3804 11.0009 52.328 12.0265 53.4968 12.0265Z" fill="#192144"/>
<path d="M43.0813 8.23733V6.09447C43.0813 5.65909 43.2578 5.28968 43.6109 4.98624C43.9639 4.6696 44.3758 4.51128 44.8466 4.51128C45.3173 4.51128 45.7292 4.6696 46.0822 4.98624C46.4353 5.28968 46.6118 5.65909 46.6118 6.09447V13.4365C46.6118 13.8719 46.4353 14.2413 46.0822 14.5448C45.7439 14.8482 45.332 14.9999 44.8466 14.9999C44.3611 14.9999 43.9419 14.8482 43.5888 14.5448C43.2505 14.2413 43.0813 13.8719 43.0813 13.4365V11.262H39.264V13.4365C39.264 13.8719 39.0875 14.2413 38.7344 14.5448C38.3961 14.8482 37.9842 14.9999 37.4988 14.9999C37.0133 14.9999 36.5941 14.8482 36.241 14.5448C35.9027 14.2413 35.7335 13.8719 35.7335 13.4365V6.09447C35.7335 5.65909 35.9101 5.28968 36.2631 4.98624C36.6161 4.6696 37.028 4.51128 37.4988 4.51128C37.9695 4.51128 38.3814 4.6696 38.7344 4.98624C39.0875 5.28968 39.264 5.65909 39.264 6.09447V8.23733H43.0813Z" fill="#192144"/>
<path d="M33.9622 4.51128C34.308 4.51128 34.6045 4.64246 34.8515 4.90482C35.0985 5.16718 35.222 5.7719 35.222 6.1392C35.222 6.50651 35.0985 6.8863 34.8515 7.14866C34.6045 7.41102 34.308 7.5033 33.9622 7.5033H31.0038V13.4743C31.0038 14.6043 30.0103 15 29.014 15C28.0896 15 27.207 14.4993 27.207 13.4849L27.2376 4.51128C27.2376 4.51128 32.3922 4.51128 33.9622 4.51128Z" fill="#192144"/>
<path d="M12.8551 0V13.3315C12.8551 13.7712 12.6164 14.1441 12.2855 14.4505C11.9684 14.757 11.4699 14.9102 11.0149 14.9102C10.5599 14.9102 9.9021 14.757 9.57117 14.4505C9.25404 14.1441 9.09547 13.7711 9.09547 13.3315V3.00913H3.77227V13.3315C3.77227 13.7711 3.60681 14.1441 3.27589 14.4505C2.95875 14.757 2.31306 14.9102 1.85804 14.9102C1.40303 14.9102 0.806623 14.757 0.475701 14.4505C0.158567 14.1441 0 13.7711 0 13.3315V0C4.26062 0 12.8551 0 12.8551 0Z" fill="#192144"/>
<path d="M24.6375 13.365C23.5609 14.3757 22.1202 14.8811 20.3154 14.8811C18.5106 14.8811 17.0778 14.3757 16.0171 13.365C14.9247 12.3391 14.3785 11.0569 14.3785 9.51811C14.3785 7.96428 14.9247 6.68199 16.0171 5.67125C17.0778 4.6605 18.5106 4.15513 20.3154 4.15513C22.1202 4.15513 23.5609 4.6605 24.6375 5.67125C25.714 6.69708 26.2523 7.97937 26.2523 9.51811C26.2523 11.0569 25.714 12.3391 24.6375 13.365ZM21.8353 7.93411C21.5345 7.61731 21.1624 7.42874 20.7191 7.36839C20.2917 7.29297 19.88 7.33068 19.4843 7.48154C19.1043 7.63239 18.7797 7.88885 18.5106 8.25091C18.2573 8.61297 18.1465 9.03537 18.1781 9.51811C18.1781 10.1517 18.376 10.6797 18.7718 11.1021C19.1835 11.5094 19.698 11.7131 20.3154 11.7131C20.9487 11.7131 21.4632 11.517 21.859 11.1247C22.2548 10.7174 22.4527 10.1819 22.4527 9.51811C22.4527 8.88451 22.2469 8.35651 21.8353 7.93411Z" fill="#192144"/>
<path d="M64.0219 4.46201C66.0459 4.46201 71.4392 4.49207 71.4392 4.49207C71.4392 4.49207 71.4433 11.0831 71.4433 13.3863C71.4433 13.8287 71.2612 14.2101 70.8972 14.5305C70.5497 14.8356 70.2353 14.9882 69.7058 14.9882C69.1763 14.9882 68.9064 15.0283 68.5424 14.7232C68.1949 14.4028 67.8752 13.8287 67.8752 13.3863V7.43679H65.4188C65.4188 11.7016 65.4189 12.6387 63.8482 14.1644C63.269 14.7136 62.5244 14.9882 61.6143 14.9882C61.0683 14.9882 60.7474 14.8573 60.4 14.5522C60.0525 14.2318 59.7828 13.7205 59.7828 13.2476C59.7828 12.2296 59.9964 11.8245 60.5424 11.1604C62.1091 11.1604 62.0413 10.7809 61.943 7.89444V6.06381C61.9596 5.62141 62.0413 4.46201 62.0413 4.46201C62.0413 4.46201 63.542 4.46201 64.0219 4.46201Z" fill="#192144"/>
<path d="M93.1598 12.7451C93.1598 13.9835 92.1101 14.9875 90.8153 14.9875C89.5204 14.9875 88.4707 13.9835 88.4707 12.7451C88.4707 11.5066 89.5204 10.5027 90.8153 10.5027C92.1101 10.5027 93.1598 11.5066 93.1598 12.7451Z" fill="#192144"/>
</symbol><symbol id="logo-dark-tablet" viewBox="0 0 202 50">
<path d="M93.9956 12.6437L53.899 50L39.2637 2.10917L93.9956 12.6437Z" fill="#FF8D30"/>
<ellipse cx="94.7273" cy="33.8971" rx="4.353" ry="4.25192" fill="#88BFEB"/>
<ellipse cx="111.867" cy="21.5314" rx="15.1738" ry="14.8214" fill="#EB9898"/>
<rect width="56.1361" height="28.0818" transform="matrix(0.940449 -0.339934 0.354279 0.93514 102.938 23.3034)" fill="#72A73E"/>
<ellipse cx="110.041" cy="40.6437" rx="2.55056" ry="2.49133" fill="#FFBD30"/>
<ellipse rx="22.7786" ry="9.03912" transform="matrix(0.97092 0.239406 -0.250219 0.968189 159.093 33.393)" fill="#8EC7F5"/>
<ellipse cx="176.368" cy="12.2097" rx="2.59389" ry="2.53366" fill="#FFBD30"/>
<ellipse cx="184.46" cy="9.19954" rx="2.59389" ry="2.53366" fill="#FFBD30"/>
<path d="M4.02588 42.0822H10.039V45.0343C10.039 45.5866 9.59133 46.0343 9.03905 46.0343H5.02588C4.47359 46.0343 4.02588 45.5866 4.02588 45.0343V42.0822Z" fill="#1D2959"/>
<path d="M41.209 42.0822H47.2222V45.0343C47.2222 45.5866 46.7744 46.0343 46.2222 46.0343H42.209C41.6567 46.0343 41.209 45.5866 41.209 45.0343V42.0822Z" fill="#1D2959"/>
<path fill-rule="evenodd" clip-rule="evenodd" d="M28.8199 3.49767C27.647 3.04017 26.3658 2.67304 25.4362 2.69114C24.561 2.70819 23.3625 3.0787 22.2691 3.52448C21.6569 3.77405 21.0526 4.04925 20.4699 4.36048L20.4661 4.36256C19.7767 4.73697 18.9089 4.49124 18.528 3.8134C18.1471 3.13545 18.3971 2.28216 19.0865 1.9075C19.2873 1.79986 19.4908 1.69708 19.6955 1.59699C20.0639 1.41695 20.5808 1.17631 21.1768 0.933328C22.3197 0.467338 23.9371 0.0295369 25.3797 0.00143768C26.9149 -0.0284637 28.6472 0.412716 29.8715 0.890271C30.6354 1.18821 31.3885 1.51746 32.1124 1.90084L32.1133 1.90132C32.8061 2.26972 33.0641 3.12072 32.6895 3.80208C32.317 4.47963 31.439 4.72838 30.7524 4.3665C30.5769 4.27486 30.3988 4.18782 30.2199 4.10286C29.8701 3.93684 29.38 3.71611 28.8199 3.49767Z" fill="#8A4A38"/>
<path fill-rule="evenodd" clip-rule="evenodd" d="M19.2686 1.72616C18.6289 1.72616 18.1104 2.24472 18.1104 2.88439V3.59083C18.1104 4.1239 18.5425 4.55603 19.0755 4.55603H19.1016V8.20734H20.1123V4.52992H19.8629C20.5143 4.40311 21.0059 3.82952 21.0059 3.14109C21.0059 2.35965 20.3724 1.72616 19.591 1.72616H19.2686Z" fill="#F6EF3E"/>
<path fill-rule="evenodd" clip-rule="evenodd" d="M31.9428 1.72619C32.5825 1.72619 33.1011 2.24475 33.1011 2.88442V3.59086C33.1011 4.12393 32.6689 4.55606 32.1359 4.55606H32.1098V8.20737H31.0991V4.52995H31.3485C30.6971 4.40314 30.2055 3.82955 30.2055 3.14112C30.2055 2.35968 30.839 1.72619 31.6204 1.72619H31.9428Z" fill="#F6EF3E"/>
<path d="M0 16.7622C0 11.7916 4.02944 7.76219 9 7.76219H42.2528C47.2234 7.76219 51.2529 11.7916 51.2529 16.7622V42.0822H0V16.7622Z" fill="#8A4A38"/>
<ellipse cx="8.05304" cy="33.2472" rx="5.02106" ry="4.906" fill="#EF9A9A"/>
<ellipse rx="4.80899" ry="9.25664" transform="matrix(0.705106 -0.709101 0.725463 0.688261 39.4773 33.4161)" fill="#93C6EB"/>
<rect width="16.3937" height="9.13786" transform="matrix(0.693232 -0.720714 0.73677 0.676144 19.7539 21.3155)" fill="#C2DEA3"/>
<rect width="8.33473" height="6.24579" rx="1" transform="matrix(0.737932 0.674875 -0.691988 0.721909 10.5842 13.2611)" fill="#C49A6C"/>
<rect x="10.0393" y="23.0502" width="7.06842" height="19.9995" fill="#F57B20"/>
<path d="M10.0393 6.4693H17.1077V23.7643C17.1077 25.7061 15.5153 27.2802 13.5735 27.2802C11.6318 27.2802 10.0393 25.7061 10.0393 23.7643V6.4693Z" fill="#F6A725"/>
<rect x="9.05957" y="21.4786" width="9.03459" height="1.96354" fill="#F6EF3E"/>
<rect x="34.1519" y="23.0502" width="7.06842" height="19.9995" fill="#F57B20"/>
<path d="M34.1519 6.4693H41.2203V23.7643C41.2203 25.7061 39.6278 27.2802 37.6861 27.2802C35.7443 27.2802 34.1519 25.7061 34.1519 23.7643V6.4693Z" fill="#F6A725"/>
<rect x="33.1721" y="21.4786" width="9.03459" height="1.96354" fill="#F6EF3E"/>
<g filter="url(#filter0_d_13528_1330)">
<path d="M198.541 22.6871C199.514 22.0829 200 21.1514 200 19.8927C200 18.248 199.3 16.9557 197.899 16.0159C196.538 15.0592 194.933 14.5809 193.086 14.5809C191.277 14.5809 189.623 15.1012 188.126 16.1417C186.648 17.1655 185.909 18.5333 185.909 20.2451C185.909 20.8829 186.113 21.4116 186.521 21.8311C186.93 22.2339 187.513 22.4353 188.272 22.4353C189.011 22.4353 189.575 22.2339 189.964 21.8311C190.372 21.4116 190.577 20.8829 190.577 20.2451C190.538 19.7584 190.703 19.2633 191.073 18.7599C191.442 18.2396 192.113 17.9795 193.086 17.9795C193.902 17.9962 194.486 18.1976 194.836 18.5836C195.206 18.9696 195.371 19.3557 195.332 19.7417C195.332 20.0102 195.235 20.2787 195.04 20.5472C194.846 20.8158 194.642 21.0255 194.428 21.1766C194.233 21.3276 193.912 21.5458 193.465 21.8311C193.017 22.1164 192.706 22.3178 192.531 22.4353C191.52 23.157 191.014 24.1136 191.014 25.3052C191.014 25.8926 191.228 26.3877 191.656 26.7905C192.103 27.1765 192.697 27.3695 193.436 27.3695C194.175 27.3695 194.758 27.1765 195.186 26.7905C195.633 26.3877 195.857 25.8926 195.857 25.3052C195.857 25.0534 195.906 24.8185 196.003 24.6003C196.1 24.3821 196.256 24.1807 196.47 23.9961C196.703 23.8115 196.898 23.6605 197.053 23.543C197.228 23.4255 197.481 23.2745 197.812 23.0898C198.162 22.9052 198.405 22.771 198.541 22.6871Z" fill="#192144"/>
<path d="M173.612 27.9874L178.779 21.7371C179.309 20.9826 180.028 20.5625 180.937 20.4768C181.845 20.3739 182.64 20.5882 183.322 21.1198C184.003 21.6514 184.325 22.363 184.287 23.2547V32.2057C184.287 32.7716 184.06 33.2517 183.605 33.6461C183.17 34.0234 182.64 34.212 182.016 34.212C181.391 34.212 180.852 34.0234 180.397 33.6461C179.962 33.2517 179.744 32.7716 179.744 32.2057V26.6499L174.577 32.9002C174.047 33.6547 173.328 34.0748 172.42 34.1606C171.511 34.2634 170.716 34.0491 170.035 33.5175C169.353 32.9859 169.032 32.2743 169.069 31.3827V22.4573C169.069 21.8915 169.287 21.4113 169.722 21.0169C170.177 20.6225 170.716 20.4253 171.341 20.4253C171.965 20.4253 172.495 20.6225 172.931 21.0169C173.385 21.4113 173.612 21.8915 173.612 22.4573V27.9874Z" fill="#192144"/>
<path fill-rule="evenodd" clip-rule="evenodd" d="M150.381 32.1179V22.4071C150.381 21.8487 150.142 21.3689 149.665 20.9675C149.206 20.5487 148.662 20.3393 148.031 20.3393C147.42 20.3393 146.885 20.5487 146.427 20.9675C145.968 21.3689 145.739 21.8487 145.739 22.4071V22.1715C145.51 21.6481 145.051 21.2031 144.363 20.8366C143.676 20.4527 142.892 20.2608 142.013 20.2608C140.294 20.2608 138.708 20.8803 137.256 22.1192C135.843 23.3581 135.136 25.0595 135.136 27.2233C135.136 29.4394 135.833 31.1582 137.228 32.3797C138.622 33.6012 140.218 34.2119 142.013 34.2119C142.892 34.2119 143.666 34.0549 144.335 33.7408C145.003 33.4092 145.49 33.0166 145.796 32.5629C145.911 33.0341 146.178 33.4267 146.599 33.7408C147.019 34.0374 147.496 34.1857 148.031 34.1857C148.662 34.1857 149.206 33.9851 149.665 33.5837C150.142 33.1824 150.381 32.6938 150.381 32.1179ZM143.052 30.3335C144.618 30.3335 145.888 28.99 145.888 27.3328C145.888 25.6755 144.618 24.3321 143.052 24.3321C141.486 24.3321 140.216 25.6755 140.216 27.3328C140.216 28.99 141.486 30.3335 143.052 30.3335Z" fill="#192144"/>
<path d="M129.097 25.3703V22.5636C129.097 21.9933 129.333 21.5095 129.806 21.112C130.279 20.6973 130.831 20.4899 131.462 20.4899C132.093 20.4899 132.645 20.6973 133.118 21.112C133.591 21.5095 133.827 21.9933 133.827 22.5636V32.1803C133.827 32.7506 133.591 33.2345 133.118 33.6319C132.664 34.0294 132.112 34.2281 131.462 34.2281C130.812 34.2281 130.25 34.0294 129.777 33.6319C129.323 33.2345 129.097 32.7506 129.097 32.1803V29.3322H123.982V32.1803C123.982 32.7506 123.746 33.2345 123.273 33.6319C122.819 34.0294 122.267 34.2281 121.617 34.2281C120.967 34.2281 120.405 34.0294 119.932 33.6319C119.479 33.2345 119.252 32.7506 119.252 32.1803V22.5636C119.252 21.9933 119.488 21.5095 119.961 21.112C120.434 20.6973 120.986 20.4899 121.617 20.4899C122.248 20.4899 122.8 20.6973 123.273 21.112C123.746 21.5095 123.982 21.9933 123.982 22.5636V25.3703H129.097Z" fill="#192144"/>
<path d="M116.879 20.4899C117.342 20.4899 117.739 20.6617 118.07 21.0054C118.401 21.349 118.566 22.1411 118.566 22.6222C118.566 23.1033 118.401 23.6007 118.07 23.9444C117.739 24.288 117.342 24.4089 116.879 24.4089H112.915V32.2298C112.915 33.7099 111.584 34.2282 110.249 34.2282C109.01 34.2282 107.828 33.5724 107.828 32.2437L107.869 20.4899C107.869 20.4899 114.775 20.4899 116.879 20.4899Z" fill="#192144"/>
<path d="M88.5982 14.5809V32.0428C88.5982 32.6187 88.2784 33.1072 87.835 33.5085C87.4101 33.9099 86.7422 34.1105 86.1326 34.1105C85.5229 34.1105 84.6416 33.9099 84.1982 33.5085C83.7733 33.1072 83.5608 32.6186 83.5608 32.0427V18.5223H76.4285V32.0427C76.4285 32.6186 76.2069 33.1072 75.7635 33.5085C75.3386 33.9099 74.4734 34.1105 73.8638 34.1105C73.2541 34.1105 72.455 33.9099 72.0116 33.5085C71.5867 33.1072 71.3743 32.6186 71.3743 32.0427V14.5809C77.0829 14.5809 88.5982 14.5809 88.5982 14.5809Z" fill="#192144"/>
<path d="M104.385 32.0866C102.942 33.4105 101.012 34.0725 98.5939 34.0725C96.1757 34.0725 94.256 33.4105 92.8348 32.0866C91.3712 30.743 90.6394 29.0634 90.6394 27.0479C90.6394 25.0127 91.3712 23.3331 92.8348 22.0092C94.256 20.6853 96.1757 20.0234 98.5939 20.0234C101.012 20.0234 102.942 20.6853 104.385 22.0092C105.827 23.3529 106.548 25.0325 106.548 27.0479C106.548 29.0634 105.827 30.743 104.385 32.0866ZM100.63 24.9732C100.227 24.5582 99.7287 24.3112 99.1348 24.2322C98.5621 24.1334 98.0106 24.1828 97.4803 24.3804C96.9712 24.578 96.5363 24.9139 96.1757 25.3881C95.8363 25.8624 95.6878 26.4156 95.7303 27.0479C95.7303 27.8778 95.9954 28.5694 96.5257 29.1227C97.0772 29.6562 97.7666 29.9229 98.5939 29.9229C99.4424 29.9229 100.132 29.6661 100.662 29.1523C101.192 28.6188 101.458 27.9174 101.458 27.0479C101.458 26.218 101.182 25.5264 100.63 24.9732Z" fill="#192144"/>
<path d="M157.154 20.4253C159.866 20.4253 167.092 20.4647 167.092 20.4647C167.092 20.4647 167.098 29.0977 167.098 32.1146C167.098 32.6941 166.854 33.1936 166.366 33.6132C165.9 34.0129 165.479 34.2127 164.77 34.2127C164.06 34.2127 163.699 34.2652 163.211 33.8656C162.745 33.446 162.317 32.6941 162.317 32.1146V24.3218H159.026C159.026 29.908 159.026 31.1353 156.921 33.1337C156.145 33.853 155.148 34.2127 153.928 34.2127C153.197 34.2127 152.767 34.0412 152.301 33.6416C151.836 33.222 151.474 32.5523 151.474 31.9329C151.474 30.5995 151.76 30.0689 152.492 29.199C154.591 29.199 154.5 28.7019 154.369 24.9212V22.5234C154.391 21.944 154.5 20.4253 154.5 20.4253C154.5 20.4253 156.511 20.4253 157.154 20.4253Z" fill="#192144"/>
<path d="M196.194 31.2747C196.194 32.8968 194.788 34.2118 193.053 34.2118C191.318 34.2118 189.912 32.8968 189.912 31.2747C189.912 29.6525 191.318 28.3375 193.053 28.3375C194.788 28.3375 196.194 29.6525 196.194 31.2747Z" fill="#192144"/>
</g>

</symbol><symbol id="logo-light-mobile" viewBox="0 0 96 15">
<path d="M94.9113 6.18874C95.6371 5.72747 96 5.01634 96 4.05535C96 2.79967 95.4774 1.81306 94.4322 1.09552C93.4161 0.365174 92.2185 0 90.8394 0C89.4894 0 88.2555 0.397207 87.1378 1.19162C86.0345 1.97322 85.4829 3.01749 85.4829 4.32443C85.4829 4.81133 85.6353 5.21494 85.9402 5.53527C86.245 5.84278 86.6805 5.99654 87.2467 5.99654C87.7983 5.99654 88.2193 5.84278 88.5096 5.53527C88.8144 5.21494 88.9668 4.81133 88.9668 4.32443C88.9378 3.95285 89.0612 3.57486 89.337 3.19047C89.6128 2.79326 90.1136 2.59466 90.8394 2.59466C91.4491 2.60747 91.8846 2.76123 92.1459 3.05593C92.4217 3.35063 92.5451 3.64533 92.5161 3.94003C92.5161 4.14504 92.4435 4.35005 92.2983 4.55506C92.1532 4.76007 92.0008 4.92024 91.8411 5.03556C91.6959 5.15088 91.4564 5.31745 91.1225 5.53527C90.7886 5.75309 90.5564 5.90685 90.4257 5.99654C89.6709 6.54751 89.2935 7.27785 89.2935 8.18758C89.2935 8.63604 89.4531 9.01403 89.7725 9.32155C90.1064 9.61625 90.5491 9.7636 91.1007 9.7636C91.6524 9.7636 92.0878 9.61625 92.4072 9.32155C92.7411 9.01403 92.908 8.63604 92.908 8.18758C92.908 7.99539 92.9443 7.816 93.0169 7.64943C93.0895 7.48286 93.2056 7.32911 93.3653 7.18816C93.5395 7.04722 93.6846 6.9319 93.8008 6.84221C93.9314 6.75252 94.1201 6.6372 94.3669 6.49625C94.6282 6.35531 94.8097 6.2528 94.9113 6.18874Z" fill="white"/>
<path d="M76.3053 10.2354L80.1618 5.46351C80.5573 4.88748 81.0941 4.56674 81.7722 4.50128C82.4502 4.42273 83.0435 4.58638 83.5521 4.99221C84.0606 5.39805 84.3008 5.94135 84.2725 6.62211V13.4559C84.2725 13.8879 84.103 14.2545 83.764 14.5556C83.4391 14.8436 83.0435 14.9876 82.5774 14.9876C82.1112 14.9876 81.7086 14.8436 81.3696 14.5556C81.0447 14.2545 80.8822 13.8879 80.8822 13.4559V9.21424L77.0257 13.9861C76.6302 14.5622 76.0934 14.8829 75.4153 14.9484C74.7373 15.0269 74.144 14.8633 73.6354 14.4574C73.1269 14.0516 72.8867 13.5083 72.915 12.8275V6.01336C72.915 5.58133 73.0774 5.21477 73.4023 4.91367C73.7413 4.61256 74.144 4.46201 74.6101 4.46201C75.0763 4.46201 75.4718 4.61256 75.7967 4.91367C76.1358 5.21477 76.3053 5.58133 76.3053 6.01336V10.2354Z" fill="white"/>
<path fill-rule="evenodd" clip-rule="evenodd" d="M58.967 13.3889V5.97502C58.967 5.54871 58.7887 5.18234 58.4323 4.87593C58.0901 4.5562 57.6837 4.39633 57.2132 4.39633C56.7569 4.39633 56.3576 4.5562 56.0154 4.87593C55.6732 5.18234 55.5021 5.54871 55.5021 5.97502V5.79517C55.331 5.3955 54.9888 5.05578 54.4755 4.77601C53.9622 4.48292 53.3776 4.33638 52.7217 4.33638C51.4384 4.33638 50.2549 4.80932 49.1712 5.7552C48.1161 6.70109 47.5885 8.00001 47.5885 9.65198C47.5885 11.3439 48.109 12.6562 49.1498 13.5887C50.1907 14.5213 51.3813 14.9876 52.7217 14.9876C53.3776 14.9876 53.955 14.8677 54.4541 14.6279C54.9531 14.3747 55.3167 14.075 55.5449 13.7286C55.6304 14.0883 55.8301 14.3881 56.1438 14.6279C56.4574 14.8543 56.8139 14.9676 57.2132 14.9676C57.6837 14.9676 58.0901 14.8144 58.4323 14.508C58.7887 14.2015 58.967 13.8285 58.967 13.3889ZM53.4968 12.0265C54.6657 12.0265 55.6133 11.0009 55.6133 9.73559C55.6133 8.47034 54.6657 7.44464 53.4968 7.44464C52.328 7.44464 51.3804 8.47034 51.3804 9.73559C51.3804 11.0009 52.328 12.0265 53.4968 12.0265Z" fill="white"/>
<path d="M43.0813 8.23733V6.09447C43.0813 5.65909 43.2578 5.28968 43.6109 4.98624C43.9639 4.6696 44.3758 4.51128 44.8466 4.51128C45.3173 4.51128 45.7292 4.6696 46.0822 4.98624C46.4353 5.28968 46.6118 5.65909 46.6118 6.09447V13.4365C46.6118 13.8719 46.4353 14.2413 46.0822 14.5448C45.7439 14.8482 45.332 14.9999 44.8466 14.9999C44.3611 14.9999 43.9419 14.8482 43.5888 14.5448C43.2505 14.2413 43.0813 13.8719 43.0813 13.4365V11.262H39.264V13.4365C39.264 13.8719 39.0875 14.2413 38.7344 14.5448C38.3961 14.8482 37.9842 14.9999 37.4988 14.9999C37.0133 14.9999 36.5941 14.8482 36.241 14.5448C35.9027 14.2413 35.7335 13.8719 35.7335 13.4365V6.09447C35.7335 5.65909 35.9101 5.28968 36.2631 4.98624C36.6161 4.6696 37.028 4.51128 37.4988 4.51128C37.9695 4.51128 38.3814 4.6696 38.7344 4.98624C39.0875 5.28968 39.264 5.65909 39.264 6.09447V8.23733H43.0813Z" fill="white"/>
<path d="M33.9622 4.51128C34.308 4.51128 34.6045 4.64246 34.8515 4.90482C35.0985 5.16718 35.222 5.7719 35.222 6.1392C35.222 6.50651 35.0985 6.8863 34.8515 7.14866C34.6045 7.41102 34.308 7.5033 33.9622 7.5033H31.0038V13.4743C31.0038 14.6043 30.0103 15 29.014 15C28.0896 15 27.207 14.4993 27.207 13.4849L27.2376 4.51128C27.2376 4.51128 32.3922 4.51128 33.9622 4.51128Z" fill="white"/>
<path d="M12.8551 0V13.3315C12.8551 13.7712 12.6164 14.1441 12.2855 14.4505C11.9684 14.757 11.4699 14.9102 11.0149 14.9102C10.5599 14.9102 9.9021 14.757 9.57117 14.4505C9.25404 14.1441 9.09547 13.7711 9.09547 13.3315V3.00913H3.77227V13.3315C3.77227 13.7711 3.60681 14.1441 3.27589 14.4505C2.95875 14.757 2.31306 14.9102 1.85804 14.9102C1.40303 14.9102 0.806623 14.757 0.475701 14.4505C0.158567 14.1441 0 13.7711 0 13.3315V0C4.26062 0 12.8551 0 12.8551 0Z" fill="white"/>
<path d="M24.6375 13.365C23.5609 14.3757 22.1202 14.8811 20.3154 14.8811C18.5106 14.8811 17.0778 14.3757 16.0171 13.365C14.9247 12.3391 14.3785 11.0569 14.3785 9.51811C14.3785 7.96428 14.9247 6.68199 16.0171 5.67125C17.0778 4.6605 18.5106 4.15513 20.3154 4.15513C22.1202 4.15513 23.5609 4.6605 24.6375 5.67125C25.714 6.69708 26.2523 7.97937 26.2523 9.51811C26.2523 11.0569 25.714 12.3391 24.6375 13.365ZM21.8353 7.93411C21.5345 7.61731 21.1624 7.42874 20.7191 7.36839C20.2917 7.29296 19.88 7.33068 19.4843 7.48154C19.1043 7.63239 18.7797 7.88885 18.5106 8.25091C18.2573 8.61297 18.1465 9.03537 18.1781 9.51811C18.1781 10.1517 18.376 10.6797 18.7718 11.1021C19.1835 11.5094 19.698 11.7131 20.3154 11.7131C20.9487 11.7131 21.4632 11.517 21.859 11.1247C22.2548 10.7174 22.4527 10.1819 22.4527 9.51811C22.4527 8.88451 22.2469 8.35651 21.8353 7.93411Z" fill="white"/>
<path d="M64.0219 4.46201C66.0459 4.46201 71.4392 4.49207 71.4392 4.49207C71.4392 4.49207 71.4433 11.0831 71.4433 13.3863C71.4433 13.8287 71.2612 14.2101 70.8972 14.5305C70.5497 14.8356 70.2353 14.9882 69.7058 14.9882C69.1763 14.9882 68.9064 15.0283 68.5424 14.7232C68.1949 14.4028 67.8752 13.8287 67.8752 13.3863V7.43679H65.4188C65.4188 11.7016 65.4189 12.6387 63.8482 14.1644C63.269 14.7136 62.5244 14.9882 61.6143 14.9882C61.0683 14.9882 60.7474 14.8573 60.4 14.5522C60.0525 14.2318 59.7828 13.7205 59.7828 13.2476C59.7828 12.2296 59.9964 11.8245 60.5424 11.1604C62.1091 11.1604 62.0413 10.7809 61.943 7.89444V6.06381C61.9596 5.62141 62.0413 4.46201 62.0413 4.46201C62.0413 4.46201 63.542 4.46201 64.0219 4.46201Z" fill="white"/>
<path d="M93.1598 12.7451C93.1598 13.9835 92.1101 14.9875 90.8153 14.9875C89.5204 14.9875 88.4707 13.9835 88.4707 12.7451C88.4707 11.5066 89.5204 10.5027 90.8153 10.5027C92.1101 10.5027 93.1598 11.5066 93.1598 12.7451Z" fill="white"/>
</symbol><symbol id="logo-light-tablet" viewBox="0 0 168 42">
<path d="M78.0164 10.6207L44.7362 42L32.5889 1.7717L78.0164 10.6207Z" fill="#FF8D30"/>
<ellipse cx="78.6237" cy="28.4735" rx="3.613" ry="3.57161" fill="#88BFEB"/>
<ellipse cx="92.8496" cy="18.0864" rx="12.5943" ry="12.45" fill="#EB9898"/>
<rect width="46.6582" height="23.5536" transform="matrix(0.939135 -0.343549 0.350582 0.936532 85.439 19.5749)" fill="#72A73E"/>
<ellipse cx="91.3343" cy="34.1406" rx="2.11696" ry="2.09272" fill="#FFBD30"/>
<ellipse rx="18.9194" ry="7.58723" transform="matrix(0.970246 0.242122 -0.247424 0.968907 132.047 28.0501)" fill="#8EC7F5"/>
<ellipse cx="146.385" cy="10.2562" rx="2.15293" ry="2.12827" fill="#FFBD30"/>
<ellipse cx="153.102" cy="7.72761" rx="2.15293" ry="2.12827" fill="#FFBD30"/>
<path d="M3.3418 35.349H8.33273V37.6688C8.33273 38.2211 7.88501 38.6688 7.33273 38.6688H4.3418C3.78951 38.6688 3.3418 38.2211 3.3418 37.6688V35.349Z" fill="#1D2959"/>
<path d="M34.2036 35.349H39.1945V37.6688C39.1945 38.2211 38.7468 38.6688 38.1945 38.6688H35.2036C34.6513 38.6688 34.2036 38.2211 34.2036 37.6688V35.349Z" fill="#1D2959"/>
<path fill-rule="evenodd" clip-rule="evenodd" d="M23.9206 2.93804C22.9471 2.55374 21.8837 2.24535 21.1121 2.26056C20.3858 2.27488 19.391 2.58611 18.4834 2.96056C17.9754 3.1702 17.4737 3.40137 16.9901 3.6628L16.9869 3.66455C16.4148 3.97905 15.6945 3.77264 15.3784 3.20325C15.0622 2.63378 15.2697 1.91701 15.8419 1.6023C16.0085 1.51188 16.1774 1.42555 16.3474 1.34147C16.6531 1.19024 17.0821 0.9881 17.5768 0.783995C18.5255 0.392564 19.8679 0.024811 21.0653 0.00120765C22.3395 -0.0239095 23.7772 0.346681 24.7935 0.747828C25.4275 0.998099 26.0526 1.27466 26.6534 1.59671L26.6541 1.59711C27.2292 1.90657 27.4433 2.62141 27.1324 3.19375C26.8232 3.76289 26.0945 3.97184 25.5246 3.66786C25.3789 3.59088 25.2311 3.51777 25.0826 3.4464C24.7923 3.30694 24.3855 3.12153 23.9206 2.93804Z" fill="#8A4A38"/>
<path fill-rule="evenodd" clip-rule="evenodd" d="M15.9931 1.44998C15.4621 1.44998 15.0317 1.88038 15.0317 2.41131V3.02596C15.0317 3.4684 15.3904 3.82707 15.8328 3.82707H15.8545V6.89417H16.6933V3.80514H16.475C17.0221 3.69862 17.4351 3.2168 17.4351 2.63853C17.4351 1.98211 16.9029 1.44998 16.2465 1.44998H15.9931Z" fill="#F6EF3E"/>
<path fill-rule="evenodd" clip-rule="evenodd" d="M26.5128 1.44998C27.0437 1.44998 27.4741 1.88038 27.4741 2.41131V3.02596C27.4741 3.4684 27.1155 3.82707 26.673 3.82707H26.6514V6.89417H25.8125V3.80514H26.0309C25.4838 3.69862 25.0708 3.2168 25.0708 2.63853C25.0708 1.98211 25.6029 1.44998 26.2593 1.44998H26.5128Z" fill="#F6EF3E"/>
<path d="M0 15.5203C0 10.5497 4.02944 6.52026 9 6.52026H33.5399C38.5105 6.52026 42.5399 10.5497 42.5399 15.5203V35.349H0V15.5203Z" fill="#8A4A38"/>
<ellipse cx="6.68408" cy="27.9276" rx="4.16748" ry="4.12104" fill="#EF9A9A"/>
<ellipse rx="4.01571" ry="7.727" transform="matrix(0.700848 -0.71331 0.721334 0.692588 32.7661 28.0696)" fill="#93C6EB"/>
<rect width="13.6922" height="7.62634" transform="matrix(0.688909 -0.724848 0.732721 0.680529 16.3955 17.905)" fill="#C2DEA3"/>
<rect width="6.95591" height="5.21665" rx="1" transform="matrix(0.733892 0.679267 -0.687658 0.726035 8.78516 11.1394)" fill="#C49A6C"/>
<rect x="8.33252" y="19.3622" width="5.86679" height="16.7996" fill="#F57B20"/>
<path d="M8.33252 5.43422H14.1993V19.982C14.1993 21.602 12.886 22.9154 11.2659 22.9154C9.64585 22.9154 8.33252 21.6021 8.33252 19.982V5.43422Z" fill="#F6A725"/>
<rect x="7.51953" y="18.042" width="7.49871" height="1.64937" fill="#F6EF3E"/>
<rect x="28.3462" y="19.3622" width="5.86679" height="16.7996" fill="#F57B20"/>
<path d="M28.3462 5.43422H34.213V19.982C34.213 21.602 32.8997 22.9154 31.2796 22.9154C29.6595 22.9154 28.3462 21.6021 28.3462 19.982V5.43422Z" fill="#F6A725"/>
<rect x="27.5332" y="18.042" width="7.49871" height="1.64937" fill="#F6EF3E"/>
<g filter="url(#filter0_d_17213_2033)">
<path d="M164.789 19.0571C165.596 18.5496 166 17.7672 166 16.7099C166 15.3283 165.419 14.2428 164.257 13.4533C163.127 12.6497 161.795 12.248 160.261 12.248C158.76 12.248 157.388 12.685 156.145 13.559C154.918 14.419 154.304 15.568 154.304 17.0059C154.304 17.5416 154.474 17.9857 154.813 18.3381C155.152 18.6765 155.636 18.8456 156.266 18.8456C156.879 18.8456 157.347 18.6765 157.67 18.3381C158.009 17.9857 158.179 17.5416 158.179 17.0059C158.146 16.5971 158.284 16.1812 158.59 15.7583C158.897 15.3212 159.454 15.1027 160.261 15.1027C160.939 15.1168 161.423 15.286 161.714 15.6102C162.021 15.9345 162.158 16.2587 162.126 16.583C162.126 16.8085 162.045 17.0341 161.884 17.2597C161.722 17.4852 161.553 17.6614 161.375 17.7883C161.214 17.9152 160.947 18.0985 160.576 18.3381C160.205 18.5778 159.946 18.747 159.801 18.8456C158.962 19.4518 158.542 20.2554 158.542 21.2563C158.542 21.7498 158.719 22.1656 159.075 22.504C159.446 22.8282 159.938 22.9903 160.552 22.9903C161.165 22.9903 161.649 22.8282 162.005 22.504C162.376 22.1656 162.562 21.7498 162.562 21.2563C162.562 21.0449 162.602 20.8475 162.683 20.6642C162.763 20.481 162.892 20.3118 163.07 20.1567C163.264 20.0017 163.425 19.8748 163.554 19.7761C163.7 19.6774 163.91 19.5505 164.184 19.3955C164.475 19.2404 164.676 19.1276 164.789 19.0571Z" fill="white"/>
<path d="M144.098 23.5094L148.387 18.2592C148.827 17.6254 149.424 17.2725 150.178 17.2005C150.932 17.1141 151.591 17.2941 152.157 17.7406C152.723 18.1872 152.99 18.7849 152.958 19.5339V27.0528C152.958 27.5281 152.77 27.9314 152.393 28.2627C152.031 28.5796 151.591 28.7381 151.073 28.7381C150.555 28.7381 150.107 28.5796 149.73 28.2627C149.369 27.9314 149.188 27.5281 149.188 27.0528V22.3859L144.899 27.6362C144.459 28.2699 143.862 28.6228 143.108 28.6949C142.354 28.7813 141.694 28.6012 141.129 28.1547C140.563 27.7082 140.296 27.1104 140.328 26.3614V18.8641C140.328 18.3888 140.508 17.9855 140.87 17.6542C141.247 17.3229 141.694 17.1573 142.213 17.1573C142.731 17.1573 143.171 17.3229 143.532 17.6542C143.91 17.9855 144.098 18.3888 144.098 18.8641V23.5094Z" fill="white"/>
<path fill-rule="evenodd" clip-rule="evenodd" d="M124.817 26.9791V18.822C124.817 18.3529 124.618 17.9498 124.222 17.6127C123.841 17.2609 123.389 17.085 122.866 17.085C122.359 17.085 121.915 17.2609 121.534 17.6127C121.154 17.9498 120.963 18.3529 120.963 18.822V18.6241C120.773 18.1844 120.392 17.8106 119.822 17.5028C119.251 17.1803 118.601 17.0191 117.871 17.0191C116.444 17.0191 115.128 17.5394 113.923 18.5801C112.749 19.6208 112.163 21.05 112.163 22.8675C112.163 24.7291 112.742 26.1729 113.899 27.1989C115.057 28.225 116.381 28.738 117.871 28.738C118.601 28.738 119.243 28.6061 119.798 28.3422C120.353 28.0637 120.757 27.7339 121.011 27.3528C121.106 27.7486 121.328 28.0784 121.677 28.3422C122.026 28.5914 122.422 28.716 122.866 28.716C123.389 28.716 123.841 28.5474 124.222 28.2103C124.618 27.8732 124.817 27.4628 124.817 26.9791ZM118.733 25.4801C120.033 25.4801 121.087 24.3516 121.087 22.9595C121.087 21.5674 120.033 20.4389 118.733 20.4389C117.433 20.4389 116.38 21.5674 116.38 22.9595C116.38 24.3516 117.433 25.4801 118.733 25.4801Z" fill="white"/>
<path d="M107.15 21.3111V18.9534C107.15 18.4744 107.347 18.0679 107.739 17.7341C108.132 17.3857 108.59 17.2115 109.114 17.2115C109.637 17.2115 110.095 17.3857 110.488 17.7341C110.88 18.0679 111.077 18.4744 111.077 18.9534V27.0315C111.077 27.5105 110.88 27.9169 110.488 28.2508C110.111 28.5847 109.653 28.7516 109.114 28.7516C108.574 28.7516 108.107 28.5847 107.715 28.2508C107.339 27.9169 107.15 27.5105 107.15 27.0315V24.639H102.905V27.0315C102.905 27.5105 102.709 27.9169 102.316 28.2508C101.94 28.5847 101.482 28.7516 100.942 28.7516C100.402 28.7516 99.9361 28.5847 99.5435 28.2508C99.1673 27.9169 98.9791 27.5105 98.9791 27.0315V18.9534C98.9791 18.4744 99.1754 18.0679 99.5681 17.7341C99.9607 17.3857 100.419 17.2115 100.942 17.2115C101.466 17.2115 101.924 17.3857 102.316 17.7341C102.709 18.0679 102.905 18.4744 102.905 18.9534V21.3111H107.15Z" fill="white"/>
<path d="M97.0093 17.2115C97.3939 17.2115 97.7235 17.3558 97.9982 17.6445C98.2729 17.9331 98.4102 18.5985 98.4102 19.0026C98.4102 19.4067 98.2729 19.8246 97.9982 20.1133C97.7235 20.4019 97.3939 20.5035 97.0093 20.5035H93.7193V27.073C93.7193 28.3163 92.6144 28.7517 91.5065 28.7517C90.4785 28.7517 89.497 28.2008 89.497 27.0847L89.531 17.2115C89.531 17.2115 95.2633 17.2115 97.0093 17.2115Z" fill="white"/>
<path d="M73.5366 12.248V26.916C73.5366 27.3997 73.2711 27.81 72.9031 28.1471C72.5504 28.4843 71.9961 28.6528 71.4901 28.6528C70.9841 28.6528 70.2526 28.4843 69.8846 28.1471C69.5319 27.81 69.3556 27.3996 69.3556 26.9159V15.5588H63.4358V26.9159C63.4358 27.3996 63.2518 27.81 62.8838 28.1471C62.5311 28.4843 61.813 28.6528 61.307 28.6528C60.801 28.6528 60.1377 28.4843 59.7697 28.1471C59.4171 27.81 59.2407 27.3996 59.2407 26.9159V12.248C63.9789 12.248 73.5366 12.248 73.5366 12.248Z" fill="white"/>
<path d="M86.6395 26.9528C85.4423 28.0648 83.8401 28.6209 81.833 28.6209C79.8259 28.6209 78.2326 28.0648 77.053 26.9528C75.8382 25.8241 75.2308 24.4133 75.2308 22.7203C75.2308 21.0107 75.8382 19.5998 77.053 18.4877C78.2326 17.3757 79.8259 16.8196 81.833 16.8196C83.8401 16.8196 85.4423 17.3757 86.6395 18.4877C87.8367 19.6164 88.4353 21.0272 88.4353 22.7203C88.4353 24.4133 87.8367 25.8241 86.6395 26.9528ZM83.5232 20.9775C83.1887 20.6289 82.7749 20.4214 82.282 20.355C81.8066 20.272 81.3489 20.3135 80.9087 20.4795C80.4862 20.6455 80.1252 20.9277 79.8259 21.326C79.5442 21.7244 79.421 22.1891 79.4562 22.7203C79.4562 23.4174 79.6763 23.9983 80.1164 24.463C80.5742 24.9112 81.1464 25.1353 81.833 25.1353C82.5373 25.1353 83.1095 24.9195 83.5496 24.4879C83.9898 24.0398 84.2098 23.4506 84.2098 22.7203C84.2098 22.0231 83.981 21.4422 83.5232 20.9775Z" fill="white"/>
<path d="M130.438 17.1573C132.689 17.1573 138.687 17.1904 138.687 17.1904C138.687 17.1904 138.691 24.4421 138.691 26.9763C138.691 27.463 138.489 27.8826 138.084 28.2351C137.697 28.5708 137.348 28.7386 136.759 28.7386C136.17 28.7386 135.87 28.7828 135.465 28.4471C135.079 28.0946 134.723 27.463 134.723 26.9763V20.4303H131.991C131.991 25.1227 131.992 26.1537 130.245 27.8323C129.601 28.4365 128.773 28.7386 127.761 28.7386C127.153 28.7386 126.797 28.5946 126.41 28.2589C126.024 27.9065 125.724 27.344 125.724 26.8236C125.724 25.7036 125.961 25.2578 126.568 24.5271C128.311 24.5271 128.235 24.1096 128.126 20.9338V18.9197C128.144 18.4329 128.235 17.1573 128.235 17.1573C128.235 17.1573 129.904 17.1573 130.438 17.1573Z" fill="white"/>
<path d="M162.841 26.2707C162.841 27.6333 161.674 28.7379 160.234 28.7379C158.794 28.7379 157.627 27.6333 157.627 26.2707C157.627 24.9081 158.794 23.8035 160.234 23.8035C161.674 23.8035 162.841 24.9081 162.841 26.2707Z" fill="white"/>
</g>

</symbol><symbol id="menu-close" viewBox="0 0 19 20">
<rect width="23.8906" height="2.0318" rx="1.0159" transform="matrix(0.69604 0.718003 -0.69604 0.718003 1.97168 0.988155)"/>
<rect width="23.8906" height="2.0318" rx="1.0159" transform="matrix(0.69604 -0.718003 0.69604 0.718003 -0.399414 17.754)"/>
</symbol><symbol id="minus" viewBox="0 0 14 2">
<line y1="1" x2="14" y2="1" stroke-width="2"/>
</symbol><symbol id="pagination" viewBox="0 0 47 5">
<circle cx="2.5" cy="2.5" r="2.5" transform="rotate(-90 2.5 2.5)" fill="#1D2E5B"/>
<circle opacity="0.3" cx="23.5" cy="2.5" r="2.5" transform="rotate(-90 23.5 2.5)" fill="#1D2E5B"/>
<circle opacity="0.3" cx="44.5" cy="2.5" r="2.5" transform="rotate(-90 44.5 2.5)" fill="#1D2E5B"/>
</symbol><symbol id="pagintation-arrow" viewBox="0 0 10 18">
<path d="M10 8.89478L0.25 17.555L0.25 0.234521L10 8.89478Z" fill="#1D2E5B"/>
</symbol><symbol id="plus" viewBox="0 0 14 14">
<line y1="6.69995" x2="14" y2="6.69995" stroke-width="2"/>
<line x1="6.7" y1="14" x2="6.7" stroke-width="2"/>
</symbol><symbol id="select-open" viewBox="0 0 12 9">
<path d="M0.63847 1.09805C0.56899 1.17667 0.513866 1.27007 0.476254 1.37289C0.438641 1.47571 0.419281 1.58595 0.419281 1.69727C0.419281 1.8086 0.438641 1.91883 0.476254 2.02165C0.513866 2.12448 0.56899 2.21787 0.63847 2.29649L5.59841 7.92308C5.65363 7.98585 5.71922 8.03565 5.79142 8.06963C5.86363 8.1036 5.94103 8.12109 6.0192 8.12109C6.09737 8.12109 6.17478 8.1036 6.24698 8.06963C6.31918 8.03565 6.38477 7.98585 6.43999 7.92308L11.3999 2.29649C11.6924 1.96472 11.6924 1.42982 11.3999 1.09805C11.1075 0.766277 10.8004 1.04112 10.5079 1.37289L7.9079 4.3364L5.99993 6.42412L1.19995 1.09079C1.19995 1.09079 0.924965 0.766277 0.63847 1.09805Z" fill="black"/>
</symbol></svg>