<svg width="17" height="17" viewBox="0 0 17 17" fill="none" xmlns="http://www.w3.org/2000/svg">
<path d="M11.9047 8.25661C11.9047 8.44223 12.0583 8.59411 12.2461 8.59411C12.4338 8.59411 12.5874 8.44223 12.5874 8.25661C12.5874 6.36324 11.0308 4.82424 9.11562 4.82424C8.92787 4.82424 8.77424 4.97612 8.77424 5.16174C8.77424 5.35074 8.92787 5.49924 9.11562 5.49924C10.6552 5.49924 11.9047 6.73786 11.9047 8.25661ZM9.11562 0.699982C8.92787 0.699982 8.77424 0.851861 8.77424 1.03748C8.77424 1.22312 8.92787 1.37498 9.11562 1.37498C12.9561 1.37498 16.0798 4.46312 16.0798 8.25661C16.0798 8.44223 16.23 8.59411 16.4211 8.59411C16.6089 8.59411 16.7625 8.44223 16.7625 8.25661C16.7625 4.0885 13.3316 0.699982 9.11562 0.699982ZM12.4509 11.8139L12.0037 12.0535C11.2492 12.4619 10.6622 13.5812 9.73112 12.7375L7.30008 10.3L5.20001 8.25661C4.14492 6.92348 5.32632 6.60623 5.73938 5.85699L5.98176 5.41825C6.25486 4.91873 6.35385 4.35849 6.27193 3.79823C6.19342 3.23799 5.93738 2.72836 5.52772 2.32336C5.02932 1.83062 4.36704 1.56062 3.66039 1.56062C2.95373 1.56062 2.28804 1.83062 1.78961 2.32336L1.61553 2.49886C0.6938 3.41012 0.587974 4.97948 1.31511 6.92348C2.00127 8.77973 3.38387 10.7912 5.20001 12.5867C7.96859 15.3239 11.0512 16.9 13.2634 16.9C14.1373 16.9 14.8781 16.6536 15.4038 16.1339L15.5813 15.9584C16.0763 15.469 16.3529 14.8142 16.3563 14.1089C16.3529 13.4204 16.0695 12.7454 15.5813 12.2627C14.7586 11.4494 13.4716 11.2671 12.4509 11.8139Z" fill="#161C35"/>
</svg>
